<svg xmlns="http://www.w3.org/2000/svg" width="184" height="274" version="1.1"><circle cx="72" cy="36" r="30" fill="rgb(100,70,18)" /><circle cx="126" cy="239" r="30" fill="rgb(31,10,25)" /><circle cx="51" cy="273" r="30" fill="rgb(19,11,35)" /><circle cx="152" cy="180" r="30" fill="rgb(32,22,46)" /><circle cx="174" cy="224" r="30" fill="rgb(40,31,52)" /><circle cx="39" cy="93" r="30" fill="rgb(78,75,56)" /><circle cx="60" cy="249" r="30" fill="rgb(45,21,35)" /><circle cx="100" cy="73" r="30" fill="rgb(158,118,48)" /><circle cx="26" cy="252" r="30" fill="rgb(28,16,38)" /><circle cx="149" cy="66" r="30" fill="rgb(103,115,77)" /><circle cx="86" cy="59" r="30" fill="rgb(136,89,33)" /><circle cx="137" cy="118" r="30" fill="rgb(47,31,32)" /><circle cx="170" cy="172" r="30" fill="rgb(65,46,50)" /><circle cx="86" cy="147" r="30" fill="rgb(194,158,80)" /><circle cx="106" cy="204" r="30" fill="rgb(14,12,36)" /><circle cx="82" cy="251" r="30" fill="rgb(51,30,35)" /><circle cx="182" cy="145" r="30" fill="rgb(109,78,76)" /><circle cx="70" cy="131" r="30" fill="rgb(228,187,95)" /><circle cx="76" cy="193" r="30" fill="rgb(54,34,45)" /><circle cx="157" cy="180" r="30" fill="rgb(39,33,47)" /><circle cx="108" cy="34" r="30" fill="rgb(36,20,20)" /><circle cx="30" cy="131" r="30" fill="rgb(149,119,57)" /><circle cx="127" cy="102" r="30" fill="rgb(35,24,30)" /><circle cx="80" cy="170" r="30" fill="rgb(72,51,46)" /><circle cx="52" cy="194" r="30" fill="rgb(43,26,36)" /><circle cx="72" cy="222" r="30" fill="rgb(182,127,60)" /><circle cx="47" cy="250" r="30" fill="rgb(43,18,37)" /><circle cx="130" cy="101" r="30" fill="rgb(53,56,47)" /><circle cx="120" cy="76" r="30" fill="rgb(24,18,30)" /><circle cx="109" cy="155" r="30" fill="rgb(23,17,27)" /><circle cx="52" cy="228" r="30" fill="rgb(137,92,33)" /><circle cx="20" cy="160" r="30" fill="rgb(125,61,51)" /><circle cx="7" cy="63" r="30" fill="rgb(108,113,90)" /><circle cx="55" cy="165" r="30" fill="rgb(47,32,37)" /><circle cx="174" cy="94" r="30" fill="rgb(81,84,73)" /><circle cx="80" cy="233" r="30" fill="rgb(161,116,48)" /><circle cx="160" cy="263" r="30" fill="rgb(21,10,24)" /><circle cx="53" cy="169" r="30" fill="rgb(52,41,49)" /><circle cx="49" cy="90" r="30" fill="rgb(79,78,57)" /><circle cx="174" cy="27" r="30" fill="rgb(137,144,92)" /><circle cx="79" cy="61" r="30" fill="rgb(200,158,72)" /><circle cx="154" cy="66" r="30" fill="rgb(173,172,116)" /><circle cx="133" cy="200" r="30" fill="rgb(31,14,32)" /><circle cx="159" cy="46" r="30" fill="rgb(166,166,116)" /><circle cx="156" cy="62" r="30" fill="rgb(175,172,103)" /><circle cx="75" cy="177" r="30" fill="rgb(52,38,38)" /><circle cx="91" cy="43" r="30" fill="rgb(196,156,68)" /><circle cx="163" cy="44" r="30" fill="rgb(157,157,107)" /><circle cx="98" cy="160" r="30" fill="rgb(54,42,42)" /><circle cx="47" cy="37" r="30" fill="rgb(152,155,100)" /><circle cx="23" cy="66" r="30" fill="rgb(105,106,66)" /><circle cx="9" cy="269" r="30" fill="rgb(22,9,35)" /><circle cx="173" cy="7" r="30" fill="rgb(110,129,84)" /><circle cx="26" cy="13" r="30" fill="rgb(109,121,71)" /><circle cx="60" cy="273" r="30" fill="rgb(25,11,37)" /><circle cx="169" cy="83" r="30" fill="rgb(85,93,70)" /><circle cx="159" cy="11" r="30" fill="rgb(110,126,81)" /><circle cx="55" cy="147" r="30" fill="rgb(90,64,47)" /><circle cx="116" cy="227" r="30" fill="rgb(101,52,20)" /><circle cx="9" cy="92" r="30" fill="rgb(56,53,34)" /><circle cx="83" cy="271" r="30" fill="rgb(20,9,26)" /><circle cx="169" cy="76" r="30" fill="rgb(87,90,61)" /><circle cx="14" cy="69" r="30" fill="rgb(90,103,75)" /><circle cx="181" cy="101" r="30" fill="rgb(85,83,71)" /><circle cx="38" cy="56" r="30" fill="rgb(164,168,118)" /><circle cx="106" cy="120" r="30" fill="rgb(197,156,64)" /><circle cx="154" cy="152" r="30" fill="rgb(38,27,44)" /><circle cx="82" cy="158" r="30" fill="rgb(93,67,42)" /><circle cx="168" cy="137" r="30" fill="rgb(67,38,30)" /><circle cx="158" cy="10" r="30" fill="rgb(109,125,80)" /><circle cx="7" cy="88" r="30" fill="rgb(50,46,35)" /><circle cx="183" cy="111" r="30" fill="rgb(84,70,59)" /><circle cx="85" cy="164" r="30" fill="rgb(89,68,49)" /><circle cx="10" cy="209" r="30" fill="rgb(48,39,56)" /><circle cx="138" cy="88" r="30" fill="rgb(69,77,56)" /><circle cx="129" cy="96" r="30" fill="rgb(40,45,38)" /><circle cx="7" cy="180" r="30" fill="rgb(85,60,53)" /><circle cx="7" cy="41" r="30" fill="rgb(140,144,93)" /><circle cx="72" cy="259" r="30" fill="rgb(35,11,27)" /><circle cx="75" cy="232" r="30" fill="rgb(118,71,27)" /><circle cx="104" cy="6" r="30" fill="rgb(102,124,78)" /><circle cx="145" cy="50" r="30" fill="rgb(147,157,97)" /><circle cx="68" cy="77" r="30" fill="rgb(156,111,46)" /><circle cx="117" cy="195" r="30" fill="rgb(17,15,36)" /><circle cx="126" cy="139" r="30" fill="rgb(63,33,22)" /><circle cx="5" cy="83" r="30" fill="rgb(62,59,54)" /><circle cx="70" cy="208" r="30" fill="rgb(187,141,66)" /><circle cx="141" cy="205" r="30" fill="rgb(36,15,32)" /><circle cx="164" cy="168" r="30" fill="rgb(59,43,53)" /><circle cx="86" cy="271" r="30" fill="rgb(22,13,32)" /><circle cx="115" cy="135" r="30" fill="rgb(127,85,37)" /><circle cx="63" cy="253" r="30" fill="rgb(46,17,22)" /><circle cx="48" cy="87" r="30" fill="rgb(73,73,49)" /><circle cx="8" cy="128" r="30" fill="rgb(106,72,47)" /><circle cx="182" cy="56" r="30" fill="rgb(113,124,84)" /><circle cx="134" cy="93" r="30" fill="rgb(78,80,58)" /><circle cx="161" cy="257" r="30" fill="rgb(31,15,26)" /><circle cx="113" cy="221" r="30" fill="rgb(100,46,18)" /><circle cx="0" cy="157" r="30" fill="rgb(73,53,64)" /><circle cx="57" cy="21" r="30" fill="rgb(125,134,81)" /><circle cx="71" cy="217" r="30" fill="rgb(195,144,65)" /><circle cx="65" cy="220" r="30" fill="rgb(177,122,57)" /><circle cx="2" cy="234" r="30" fill="rgb(38,29,56)" /><circle cx="73" cy="60" r="30" fill="rgb(140,93,39)" /><circle cx="33" cy="204" r="30" fill="rgb(94,51,19)" /><circle cx="145" cy="163" r="30" fill="rgb(27,16,30)" /><circle cx="29" cy="194" r="30" fill="rgb(62,25,17)" /><circle cx="56" cy="178" r="30" fill="rgb(33,22,38)" /><circle cx="126" cy="91" r="30" fill="rgb(47,32,39)" /><circle cx="37" cy="240" r="30" fill="rgb(44,27,46)" /><circle cx="54" cy="165" r="30" fill="rgb(49,34,39)" /><circle cx="148" cy="66" r="30" fill="rgb(90,104,69)" /><circle cx="111" cy="233" r="30" fill="rgb(76,39,31)" /><circle cx="9" cy="68" r="30" fill="rgb(95,104,73)" /><circle cx="176" cy="263" r="30" fill="rgb(31,13,35)" /><circle cx="104" cy="173" r="30" fill="rgb(33,21,41)" /><circle cx="89" cy="222" r="30" fill="rgb(117,75,37)" /><circle cx="96" cy="149" r="30" fill="rgb(136,104,45)" /><circle cx="140" cy="183" r="30" fill="rgb(34,16,30)" /><circle cx="126" cy="80" r="30" fill="rgb(51,36,41)" /><circle cx="108" cy="10" r="30" fill="rgb(108,125,73)" /><circle cx="165" cy="238" r="30" fill="rgb(33,24,43)" /><circle cx="29" cy="259" r="30" fill="rgb(27,15,39)" /><circle cx="68" cy="257" r="30" fill="rgb(30,9,28)" /><circle cx="169" cy="162" r="30" fill="rgb(64,40,54)" /><circle cx="19" cy="87" r="30" fill="rgb(85,84,63)" /><circle cx="110" cy="189" r="30" fill="rgb(24,20,37)" /><circle cx="166" cy="175" r="30" fill="rgb(42,33,52)" /><circle cx="174" cy="261" r="30" fill="rgb(27,12,31)" /><circle cx="81" cy="26" r="30" fill="rgb(143,130,88)" /><circle cx="5" cy="104" r="30" fill="rgb(57,53,52)" /><circle cx="48" cy="9" r="30" fill="rgb(104,116,66)" /><circle cx="80" cy="61" r="30" fill="rgb(206,165,77)" /><circle cx="136" cy="127" r="30" fill="rgb(89,62,35)" /><circle cx="31" cy="137" r="30" fill="rgb(128,91,46)" /><circle cx="137" cy="91" r="30" fill="rgb(83,89,63)" /><circle cx="77" cy="29" r="30" fill="rgb(107,83,35)" /><circle cx="35" cy="111" r="30" fill="rgb(78,67,37)" /><circle cx="173" cy="127" r="30" fill="rgb(126,113,71)" /><circle cx="110" cy="15" r="30" fill="rgb(115,129,78)" /><circle cx="7" cy="84" r="30" fill="rgb(59,56,49)" /><circle cx="58" cy="70" r="30" fill="rgb(103,82,63)" /><circle cx="145" cy="269" r="30" fill="rgb(8,5,24)" /><circle cx="77" cy="225" r="30" fill="rgb(164,113,50)" /><circle cx="95" cy="91" r="30" fill="rgb(119,79,43)" /><circle cx="59" cy="229" r="30" fill="rgb(174,126,62)" /><circle cx="65" cy="96" r="30" fill="rgb(62,25,33)" /><circle cx="105" cy="186" r="30" fill="rgb(29,22,38)" /><circle cx="125" cy="129" r="30" fill="rgb(67,35,20)" /><circle cx="10" cy="23" r="30" fill="rgb(122,133,77)" /><circle cx="140" cy="38" r="30" fill="rgb(140,150,100)" /><circle cx="55" cy="210" r="30" fill="rgb(200,162,79)" /><circle cx="91" cy="61" r="30" fill="rgb(188,141,89)" /><circle cx="165" cy="87" r="30" fill="rgb(79,89,65)" /><circle cx="113" cy="108" r="30" fill="rgb(68,38,28)" /><circle cx="71" cy="252" r="30" fill="rgb(55,29,38)" /><circle cx="64" cy="271" r="30" fill="rgb(36,13,39)" /><circle cx="102" cy="85" r="30" fill="rgb(97,63,38)" /><circle cx="65" cy="173" r="30" fill="rgb(40,26,41)" /><circle cx="150" cy="217" r="30" fill="rgb(36,26,50)" /><circle cx="88" cy="41" r="30" fill="rgb(198,161,72)" /><circle cx="165" cy="48" r="30" fill="rgb(165,163,104)" /><circle cx="147" cy="77" r="30" fill="rgb(63,82,60)" /><circle cx="176" cy="92" r="30" fill="rgb(74,76,62)" /><circle cx="127" cy="59" r="30" fill="rgb(75,83,60)" /><circle cx="78" cy="33" r="30" fill="rgb(110,73,21)" /><circle cx="134" cy="130" r="30" fill="rgb(149,115,70)" /><circle cx="32" cy="102" r="30" fill="rgb(84,96,76)" /><circle cx="116" cy="87" r="30" fill="rgb(36,20,31)" /><circle cx="110" cy="72" r="30" fill="rgb(43,25,41)" /><circle cx="35" cy="112" r="30" fill="rgb(91,75,41)" /><circle cx="144" cy="84" r="30" fill="rgb(62,70,57)" /><circle cx="41" cy="255" r="30" fill="rgb(29,14,33)" /><circle cx="175" cy="233" r="30" fill="rgb(50,36,51)" /><circle cx="156" cy="63" r="30" fill="rgb(175,172,105)" /><circle cx="180" cy="271" r="30" fill="rgb(16,11,33)" /><circle cx="110" cy="102" r="30" fill="rgb(61,28,19)" /><circle cx="26" cy="163" r="30" fill="rgb(159,117,75)" /><circle cx="65" cy="71" r="30" fill="rgb(48,13,7)" /><circle cx="155" cy="113" r="30" fill="rgb(87,79,32)" /><circle cx="114" cy="13" r="30" fill="rgb(115,132,80)" /><circle cx="26" cy="9" r="30" fill="rgb(108,120,70)" /><circle cx="30" cy="143" r="30" fill="rgb(150,114,62)" /><circle cx="152" cy="20" r="30" fill="rgb(126,139,95)" /><circle cx="170" cy="99" r="30" fill="rgb(91,99,84)" /><circle cx="82" cy="126" r="30" fill="rgb(236,195,105)" /><circle cx="54" cy="267" r="30" fill="rgb(24,11,31)" /><circle cx="169" cy="106" r="30" fill="rgb(109,105,78)" /><circle cx="91" cy="47" r="30" fill="rgb(207,164,72)" /><circle cx="64" cy="180" r="30" fill="rgb(41,29,43)" /><circle cx="99" cy="56" r="30" fill="rgb(177,138,73)" /><circle cx="20" cy="119" r="30" fill="rgb(117,93,55)" /><circle cx="127" cy="140" r="30" fill="rgb(58,37,34)" /><circle cx="173" cy="32" r="30" fill="rgb(144,147,94)" /><circle cx="80" cy="117" r="30" fill="rgb(195,158,80)" /><circle cx="157" cy="204" r="30" fill="rgb(27,23,48)" /><circle cx="116" cy="258" r="30" fill="rgb(10,6,23)" /><circle cx="51" cy="164" r="30" fill="rgb(56,43,50)" /><circle cx="1" cy="175" r="30" fill="rgb(77,65,67)" /><circle cx="70" cy="13" r="30" fill="rgb(115,125,73)" /></svg>