<svg xmlns="http://www.w3.org/2000/svg" width="184" height="274" version="1.1"><ellipse cx="68" cy="255" rx="30" ry="30" transform="rotate(63,80,65)" fill="rgb(49,23,36)" /><ellipse cx="128" cy="30" rx="30" ry="30" transform="rotate(63,80,65)" fill="rgb(129,137,86)" /><ellipse cx="51" cy="219" rx="30" ry="30" transform="rotate(63,80,65)" fill="rgb(91,58,41)" /><ellipse cx="75" cy="88" rx="30" ry="30" transform="rotate(63,80,65)" fill="rgb(199,155,84)" /><ellipse cx="42" cy="232" rx="30" ry="30" transform="rotate(63,80,65)" fill="rgb(79,49,39)" /><ellipse cx="73" cy="165" rx="30" ry="30" transform="rotate(63,80,65)" fill="rgb(68,50,38)" /><ellipse cx="175" cy="254" rx="30" ry="30" transform="rotate(63,80,65)" fill="rgb(32,20,42)" /><ellipse cx="182" cy="118" rx="30" ry="30" transform="rotate(63,80,65)" fill="rgb(89,83,71)" /><ellipse cx="95" cy="210" rx="30" ry="30" transform="rotate(63,80,65)" fill="rgb(42,35,53)" /><ellipse cx="63" cy="267" rx="30" ry="30" transform="rotate(63,80,65)" fill="rgb(30,11,33)" /><ellipse cx="172" cy="89" rx="30" ry="30" transform="rotate(63,80,65)" fill="rgb(78,82,67)" /><ellipse cx="28" cy="190" rx="30" ry="30" transform="rotate(63,80,65)" fill="rgb(56,40,53)" /><ellipse cx="87" cy="146" rx="30" ry="30" transform="rotate(63,80,65)" fill="rgb(231,196,112)" /><ellipse cx="156" cy="263" rx="30" ry="30" transform="rotate(63,80,65)" fill="rgb(10,7,26)" /><ellipse cx="58" cy="235" rx="30" ry="30" transform="rotate(63,80,65)" fill="rgb(183,132,66)" /><ellipse cx="157" cy="75" rx="30" ry="30" transform="rotate(63,80,65)" fill="rgb(136,148,100)" /><ellipse cx="17" cy="201" rx="30" ry="30" transform="rotate(63,80,65)" fill="rgb(40,22,44)" /><ellipse cx="66" cy="57" rx="30" ry="30" transform="rotate(63,80,65)" fill="rgb(115,81,46)" /><ellipse cx="89" cy="78" rx="30" ry="30" transform="rotate(63,80,65)" fill="rgb(210,166,91)" /><ellipse cx="143" cy="128" rx="30" ry="30" transform="rotate(63,80,65)" fill="rgb(47,19,31)" /><ellipse cx="107" cy="0" rx="30" ry="30" transform="rotate(63,80,65)" fill="rgb(68,95,50)" /><ellipse cx="177" cy="83" rx="30" ry="30" transform="rotate(63,80,65)" fill="rgb(81,84,63)" /><ellipse cx="101" cy="212" rx="30" ry="30" transform="rotate(63,80,65)" fill="rgb(12,13,43)" /><ellipse cx="56" cy="134" rx="30" ry="30" transform="rotate(63,80,65)" fill="rgb(44,23,30)" /><ellipse cx="4" cy="93" rx="30" ry="30" transform="rotate(63,80,65)" fill="rgb(58,49,42)" /><ellipse cx="51" cy="135" rx="30" ry="30" transform="rotate(63,80,65)" fill="rgb(44,31,41)" /><ellipse cx="87" cy="100" rx="30" ry="30" transform="rotate(63,80,65)" fill="rgb(83,46,27)" /><ellipse cx="21" cy="59" rx="30" ry="30" transform="rotate(63,80,65)" fill="rgb(130,132,85)" /><ellipse cx="151" cy="147" rx="30" ry="30" transform="rotate(63,80,65)" fill="rgb(36,28,49)" /><ellipse cx="64" cy="104" rx="30" ry="30" transform="rotate(63,80,65)" fill="rgb(73,42,37)" /><ellipse cx="49" cy="67" rx="30" ry="30" transform="rotate(63,80,65)" fill="rgb(101,96,58)" /><ellipse cx="95" cy="145" rx="30" ry="30" transform="rotate(63,80,65)" fill="rgb(232,201,110)" /><ellipse cx="58" cy="146" rx="30" ry="30" transform="rotate(63,80,65)" fill="rgb(110,80,54)" /><ellipse cx="67" cy="129" rx="30" ry="30" transform="rotate(63,80,65)" fill="rgb(141,94,22)" /><ellipse cx="9" cy="187" rx="30" ry="30" transform="rotate(63,80,65)" fill="rgb(79,55,53)" /><ellipse cx="158" cy="128" rx="30" ry="30" transform="rotate(63,80,65)" fill="rgb(153,136,82)" /><ellipse cx="124" cy="217" rx="30" ry="30" transform="rotate(63,80,65)" fill="rgb(116,73,54)" /><ellipse cx="87" cy="103" rx="30" ry="30" transform="rotate(63,80,65)" fill="rgb(118,85,52)" /><ellipse cx="169" cy="198" rx="30" ry="30" transform="rotate(63,80,65)" fill="rgb(37,28,49)" /><ellipse cx="86" cy="86" rx="30" ry="30" transform="rotate(63,80,65)" fill="rgb(141,99,41)" /><ellipse cx="5" cy="87" rx="30" ry="30" transform="rotate(63,80,65)" fill="rgb(67,63,54)" /><ellipse cx="144" cy="218" rx="30" ry="30" transform="rotate(63,80,65)" fill="rgb(28,18,45)" /><ellipse cx="131" cy="195" rx="30" ry="30" transform="rotate(63,80,65)" fill="rgb(41,27,42)" /><ellipse cx="20" cy="13" rx="30" ry="30" transform="rotate(63,80,65)" fill="rgb(114,126,76)" /><ellipse cx="173" cy="147" rx="30" ry="30" transform="rotate(63,80,65)" fill="rgb(109,61,57)" /><ellipse cx="48" cy="51" rx="30" ry="30" transform="rotate(63,80,65)" fill="rgb(163,166,111)" /><ellipse cx="158" cy="204" rx="30" ry="30" transform="rotate(63,80,65)" fill="rgb(27,25,49)" /><ellipse cx="85" cy="152" rx="30" ry="30" transform="rotate(63,80,65)" fill="rgb(123,85,49)" /><ellipse cx="12" cy="148" rx="30" ry="30" transform="rotate(63,80,65)" fill="rgb(147,83,47)" /><ellipse cx="26" cy="233" rx="30" ry="30" transform="rotate(63,80,65)" fill="rgb(30,18,38)" /><ellipse cx="122" cy="83" rx="30" ry="30" transform="rotate(63,80,65)" fill="rgb(27,17,28)" /><ellipse cx="50" cy="153" rx="30" ry="30" transform="rotate(63,80,65)" fill="rgb(52,36,39)" /><ellipse cx="128" cy="175" rx="30" ry="30" transform="rotate(63,80,65)" fill="rgb(36,20,31)" /><ellipse cx="98" cy="104" rx="30" ry="30" transform="rotate(63,80,65)" fill="rgb(105,73,34)" /><ellipse cx="105" cy="204" rx="30" ry="30" transform="rotate(63,80,65)" fill="rgb(18,14,39)" /><ellipse cx="165" cy="267" rx="30" ry="30" transform="rotate(63,80,65)" fill="rgb(18,7,23)" /><ellipse cx="78" cy="1" rx="30" ry="30" transform="rotate(63,80,65)" fill="rgb(94,119,79)" /><ellipse cx="32" cy="244" rx="30" ry="30" transform="rotate(63,80,65)" fill="rgb(32,14,36)" /><ellipse cx="140" cy="257" rx="30" ry="30" transform="rotate(63,80,65)" fill="rgb(10,5,25)" /><ellipse cx="134" cy="195" rx="30" ry="30" transform="rotate(63,80,65)" fill="rgb(37,21,34)" /><ellipse cx="83" cy="173" rx="30" ry="30" transform="rotate(63,80,65)" fill="rgb(71,52,46)" /><ellipse cx="90" cy="71" rx="30" ry="30" transform="rotate(63,80,65)" fill="rgb(217,177,79)" /><ellipse cx="140" cy="54" rx="30" ry="30" transform="rotate(63,80,65)" fill="rgb(123,139,90)" /><ellipse cx="104" cy="176" rx="30" ry="30" transform="rotate(63,80,65)" fill="rgb(29,20,37)" /><ellipse cx="2" cy="44" rx="30" ry="30" transform="rotate(63,80,65)" fill="rgb(144,144,92)" /><ellipse cx="94" cy="224" rx="30" ry="30" transform="rotate(63,80,65)" fill="rgb(147,100,56)" /><ellipse cx="123" cy="54" rx="30" ry="30" transform="rotate(63,80,65)" fill="rgb(12,10,0)" /><ellipse cx="19" cy="192" rx="30" ry="30" transform="rotate(63,80,65)" fill="rgb(50,33,43)" /><ellipse cx="25" cy="200" rx="30" ry="30" transform="rotate(63,80,65)" fill="rgb(90,45,26)" /><ellipse cx="57" cy="262" rx="30" ry="30" transform="rotate(63,80,65)" fill="rgb(28,13,32)" /><ellipse cx="6" cy="19" rx="30" ry="30" transform="rotate(63,80,65)" fill="rgb(123,133,83)" /><ellipse cx="162" cy="32" rx="30" ry="30" transform="rotate(63,80,65)" fill="rgb(147,148,90)" /><ellipse cx="39" cy="242" rx="30" ry="30" transform="rotate(63,80,65)" fill="rgb(43,22,37)" /><ellipse cx="127" cy="100" rx="30" ry="30" transform="rotate(63,80,65)" fill="rgb(37,28,33)" /><ellipse cx="47" cy="4" rx="30" ry="30" transform="rotate(63,80,65)" fill="rgb(102,125,81)" /><ellipse cx="51" cy="257" rx="30" ry="30" transform="rotate(63,80,65)" fill="rgb(45,22,42)" /><ellipse cx="39" cy="78" rx="30" ry="30" transform="rotate(63,80,65)" fill="rgb(83,85,61)" /><ellipse cx="16" cy="128" rx="30" ry="30" transform="rotate(63,80,65)" fill="rgb(100,62,49)" /><ellipse cx="103" cy="72" rx="30" ry="30" transform="rotate(63,80,65)" fill="rgb(120,82,35)" /><ellipse cx="34" cy="220" rx="30" ry="30" transform="rotate(63,80,65)" fill="rgb(42,25,41)" /><ellipse cx="47" cy="14" rx="30" ry="30" transform="rotate(63,80,65)" fill="rgb(107,119,73)" /><ellipse cx="77" cy="141" rx="30" ry="30" transform="rotate(63,80,65)" fill="rgb(220,189,98)" /><ellipse cx="171" cy="99" rx="30" ry="30" transform="rotate(63,80,65)" fill="rgb(88,96,81)" /><ellipse cx="39" cy="181" rx="30" ry="30" transform="rotate(63,80,65)" fill="rgb(77,53,43)" /><ellipse cx="152" cy="201" rx="30" ry="30" transform="rotate(63,80,65)" fill="rgb(21,13,34)" /><ellipse cx="51" cy="263" rx="30" ry="30" transform="rotate(63,80,65)" fill="rgb(29,12,31)" /><ellipse cx="180" cy="90" rx="30" ry="30" transform="rotate(63,80,65)" fill="rgb(84,86,73)" /><ellipse cx="11" cy="73" rx="30" ry="30" transform="rotate(63,80,65)" fill="rgb(85,93,70)" /><ellipse cx="26" cy="165" rx="30" ry="30" transform="rotate(63,80,65)" fill="rgb(143,114,56)" /><ellipse cx="3" cy="35" rx="30" ry="30" transform="rotate(63,80,65)" fill="rgb(140,147,96)" /><ellipse cx="142" cy="143" rx="30" ry="30" transform="rotate(63,80,65)" fill="rgb(12,16,25)" /><ellipse cx="122" cy="197" rx="30" ry="30" transform="rotate(63,80,65)" fill="rgb(16,11,33)" /><ellipse cx="113" cy="269" rx="30" ry="30" transform="rotate(63,80,65)" fill="rgb(18,11,27)" /><ellipse cx="149" cy="200" rx="30" ry="30" transform="rotate(63,80,65)" fill="rgb(28,19,38)" /><ellipse cx="36" cy="246" rx="30" ry="30" transform="rotate(63,80,65)" fill="rgb(30,11,33)" /><ellipse cx="112" cy="224" rx="30" ry="30" transform="rotate(63,80,65)" fill="rgb(106,55,26)" /><ellipse cx="94" cy="97" rx="30" ry="30" transform="rotate(63,80,65)" fill="rgb(88,58,32)" /><ellipse cx="164" cy="106" rx="30" ry="30" transform="rotate(63,80,65)" fill="rgb(126,122,87)" /><ellipse cx="68" cy="81" rx="30" ry="30" transform="rotate(63,80,65)" fill="rgb(117,70,44)" /><ellipse cx="135" cy="0" rx="30" ry="30" transform="rotate(63,80,65)" fill="rgb(68,94,57)" /><ellipse cx="34" cy="152" rx="30" ry="30" transform="rotate(63,80,65)" fill="rgb(81,47,38)" /><ellipse cx="177" cy="267" rx="30" ry="30" transform="rotate(63,80,65)" fill="rgb(22,10,34)" /><ellipse cx="173" cy="124" rx="30" ry="30" transform="rotate(63,80,65)" fill="rgb(113,101,61)" /><ellipse cx="71" cy="222" rx="30" ry="30" transform="rotate(63,80,65)" fill="rgb(181,126,59)" /><ellipse cx="149" cy="91" rx="30" ry="30" transform="rotate(63,80,65)" fill="rgb(62,74,52)" /><ellipse cx="21" cy="237" rx="30" ry="30" transform="rotate(63,80,65)" fill="rgb(34,21,39)" /><ellipse cx="128" cy="114" rx="30" ry="30" transform="rotate(63,80,65)" fill="rgb(47,30,40)" /><ellipse cx="69" cy="206" rx="30" ry="30" transform="rotate(63,80,65)" fill="rgb(187,143,72)" /><ellipse cx="24" cy="129" rx="30" ry="30" transform="rotate(63,80,65)" fill="rgb(161,134,57)" /><ellipse cx="122" cy="174" rx="30" ry="30" transform="rotate(63,80,65)" fill="rgb(65,46,40)" /><ellipse cx="85" cy="225" rx="30" ry="30" transform="rotate(63,80,65)" fill="rgb(180,133,45)" /><ellipse cx="160" cy="57" rx="30" ry="30" transform="rotate(63,80,65)" fill="rgb(168,170,105)" /><ellipse cx="15" cy="59" rx="30" ry="30" transform="rotate(63,80,65)" fill="rgb(116,117,75)" /><ellipse cx="174" cy="140" rx="30" ry="30" transform="rotate(63,80,65)" fill="rgb(103,67,45)" /><ellipse cx="110" cy="201" rx="30" ry="30" transform="rotate(63,80,65)" fill="rgb(15,15,39)" /><ellipse cx="94" cy="102" rx="30" ry="30" transform="rotate(63,80,65)" fill="rgb(80,51,35)" /><ellipse cx="65" cy="132" rx="30" ry="30" transform="rotate(63,80,65)" fill="rgb(168,123,42)" /><ellipse cx="142" cy="30" rx="30" ry="30" transform="rotate(63,80,65)" fill="rgb(134,142,91)" /><ellipse cx="14" cy="123" rx="30" ry="30" transform="rotate(63,80,65)" fill="rgb(89,57,32)" /><ellipse cx="19" cy="9" rx="30" ry="30" transform="rotate(63,80,65)" fill="rgb(108,120,70)" /><ellipse cx="43" cy="0" rx="30" ry="30" transform="rotate(63,80,65)" fill="rgb(63,93,55)" /><ellipse cx="123" cy="60" rx="30" ry="30" transform="rotate(63,80,65)" fill="rgb(26,22,21)" /><ellipse cx="172" cy="246" rx="30" ry="30" transform="rotate(63,80,65)" fill="rgb(34,17,35)" /><ellipse cx="177" cy="21" rx="30" ry="30" transform="rotate(63,80,65)" fill="rgb(138,145,91)" /><ellipse cx="24" cy="36" rx="30" ry="30" transform="rotate(63,80,65)" fill="rgb(149,152,99)" /><ellipse cx="9" cy="230" rx="30" ry="30" transform="rotate(63,80,65)" fill="rgb(33,21,45)" /><ellipse cx="66" cy="60" rx="30" ry="30" transform="rotate(63,80,65)" fill="rgb(101,65,43)" /><ellipse cx="94" cy="150" rx="30" ry="30" transform="rotate(63,80,65)" fill="rgb(134,98,48)" /><ellipse cx="151" cy="74" rx="30" ry="30" transform="rotate(63,80,65)" fill="rgb(120,135,96)" /><ellipse cx="78" cy="34" rx="30" ry="30" transform="rotate(63,80,65)" fill="rgb(118,81,28)" /><ellipse cx="55" cy="162" rx="30" ry="30" transform="rotate(63,80,65)" fill="rgb(55,40,43)" /><ellipse cx="38" cy="121" rx="30" ry="30" transform="rotate(63,80,65)" fill="rgb(82,54,30)" /><ellipse cx="178" cy="94" rx="30" ry="30" transform="rotate(63,80,65)" fill="rgb(91,93,80)" /><ellipse cx="109" cy="177" rx="30" ry="30" transform="rotate(63,80,65)" fill="rgb(23,19,36)" /><ellipse cx="50" cy="218" rx="30" ry="30" transform="rotate(63,80,65)" fill="rgb(94,58,44)" /><ellipse cx="121" cy="28" rx="30" ry="30" transform="rotate(63,80,65)" fill="rgb(134,143,90)" /><ellipse cx="36" cy="169" rx="30" ry="30" transform="rotate(63,80,65)" fill="rgb(54,38,48)" /><ellipse cx="92" cy="31" rx="30" ry="30" transform="rotate(63,80,65)" fill="rgb(79,42,33)" /><ellipse cx="69" cy="156" rx="30" ry="30" transform="rotate(63,80,65)" fill="rgb(82,60,37)" /><ellipse cx="1" cy="153" rx="30" ry="30" transform="rotate(63,80,65)" fill="rgb(61,52,71)" /><ellipse cx="21" cy="240" rx="30" ry="30" transform="rotate(63,80,65)" fill="rgb(30,18,38)" /><ellipse cx="44" cy="182" rx="30" ry="30" transform="rotate(63,80,65)" fill="rgb(67,46,41)" /><ellipse cx="164" cy="167" rx="30" ry="30" transform="rotate(63,80,65)" fill="rgb(54,38,48)" /><ellipse cx="168" cy="7" rx="30" ry="30" transform="rotate(63,80,65)" fill="rgb(112,131,86)" /><ellipse cx="0" cy="232" rx="30" ry="30" transform="rotate(63,80,65)" fill="rgb(45,35,60)" /><ellipse cx="92" cy="85" rx="30" ry="30" transform="rotate(63,80,65)" fill="rgb(185,146,71)" /><ellipse cx="64" cy="169" rx="30" ry="30" transform="rotate(63,80,65)" fill="rgb(54,38,48)" /><ellipse cx="32" cy="170" rx="30" ry="30" transform="rotate(63,80,65)" fill="rgb(55,38,54)" /><ellipse cx="79" cy="267" rx="30" ry="30" transform="rotate(63,80,65)" fill="rgb(18,9,28)" /><ellipse cx="80" cy="41" rx="30" ry="30" transform="rotate(63,80,65)" fill="rgb(220,180,92)" /><ellipse cx="64" cy="155" rx="30" ry="30" transform="rotate(63,80,65)" fill="rgb(71,50,33)" /><ellipse cx="85" cy="220" rx="30" ry="30" transform="rotate(63,80,65)" fill="rgb(140,90,41)" /><ellipse cx="166" cy="48" rx="30" ry="30" transform="rotate(63,80,65)" fill="rgb(167,162,104)" /><ellipse cx="158" cy="197" rx="30" ry="30" transform="rotate(63,80,65)" fill="rgb(29,21,44)" /><ellipse cx="135" cy="267" rx="30" ry="30" transform="rotate(63,80,65)" fill="rgb(8,5,24)" /><ellipse cx="25" cy="143" rx="30" ry="30" transform="rotate(63,80,65)" fill="rgb(132,93,38)" /><ellipse cx="108" cy="162" rx="30" ry="30" transform="rotate(63,80,65)" fill="rgb(35,25,34)" /><ellipse cx="37" cy="76" rx="30" ry="30" transform="rotate(63,80,65)" fill="rgb(75,79,54)" /><ellipse cx="180" cy="55" rx="30" ry="30" transform="rotate(63,80,65)" fill="rgb(144,153,108)" /><ellipse cx="153" cy="164" rx="30" ry="30" transform="rotate(63,80,65)" fill="rgb(24,21,38)" /><ellipse cx="143" cy="198" rx="30" ry="30" transform="rotate(63,80,65)" fill="rgb(33,15,29)" /><ellipse cx="94" cy="69" rx="30" ry="30" transform="rotate(63,80,65)" fill="rgb(228,183,100)" /><ellipse cx="27" cy="39" rx="30" ry="30" transform="rotate(63,80,65)" fill="rgb(150,153,100)" /><ellipse cx="104" cy="175" rx="30" ry="30" transform="rotate(63,80,65)" fill="rgb(33,21,41)" /><ellipse cx="61" cy="77" rx="30" ry="30" transform="rotate(63,80,65)" fill="rgb(71,32,27)" /><ellipse cx="10" cy="93" rx="30" ry="30" transform="rotate(63,80,65)" fill="rgb(56,53,36)" /><ellipse cx="133" cy="272" rx="30" ry="30" transform="rotate(63,80,65)" fill="rgb(13,10,31)" /><ellipse cx="64" cy="27" rx="30" ry="30" transform="rotate(63,80,65)" fill="rgb(138,141,86)" /><ellipse cx="83" cy="240" rx="30" ry="30" transform="rotate(63,80,65)" fill="rgb(88,44,31)" /><ellipse cx="34" cy="1" rx="30" ry="30" transform="rotate(63,80,65)" fill="rgb(77,105,67)" /><ellipse cx="120" cy="56" rx="30" ry="30" transform="rotate(63,80,65)" fill="rgb(20,6,19)" /><ellipse cx="16" cy="213" rx="30" ry="30" transform="rotate(63,80,65)" fill="rgb(36,26,53)" /><ellipse cx="173" cy="32" rx="30" ry="30" transform="rotate(63,80,65)" fill="rgb(144,147,94)" /><ellipse cx="143" cy="175" rx="30" ry="30" transform="rotate(63,80,65)" fill="rgb(25,11,24)" /><ellipse cx="98" cy="30" rx="30" ry="30" transform="rotate(63,80,65)" fill="rgb(62,33,25)" /><ellipse cx="162" cy="98" rx="30" ry="30" transform="rotate(63,80,65)" fill="rgb(62,66,51)" /><ellipse cx="182" cy="247" rx="30" ry="30" transform="rotate(63,80,65)" fill="rgb(54,35,54)" /><ellipse cx="106" cy="273" rx="30" ry="30" transform="rotate(63,80,65)" fill="rgb(22,12,36)" /><ellipse cx="74" cy="43" rx="30" ry="30" transform="rotate(63,80,65)" fill="rgb(225,185,97)" /><ellipse cx="170" cy="1" rx="30" ry="30" transform="rotate(63,80,65)" fill="rgb(64,101,70)" /><ellipse cx="106" cy="123" rx="30" ry="30" transform="rotate(63,80,65)" fill="rgb(192,151,59)" /><ellipse cx="95" cy="72" rx="30" ry="30" transform="rotate(63,80,65)" fill="rgb(215,171,84)" /><ellipse cx="12" cy="126" rx="30" ry="30" transform="rotate(63,80,65)" fill="rgb(128,83,50)" /><ellipse cx="179" cy="54" rx="30" ry="30" transform="rotate(63,80,65)" fill="rgb(162,172,122)" /><ellipse cx="143" cy="128" rx="30" ry="30" transform="rotate(63,80,65)" fill="rgb(47,19,31)" /><ellipse cx="175" cy="224" rx="30" ry="30" transform="rotate(63,80,65)" fill="rgb(42,33,52)" /><ellipse cx="83" cy="241" rx="30" ry="30" transform="rotate(63,80,65)" fill="rgb(79,41,30)" /><ellipse cx="147" cy="267" rx="30" ry="30" transform="rotate(63,80,65)" fill="rgb(7,4,23)" /><ellipse cx="44" cy="121" rx="30" ry="30" transform="rotate(63,80,65)" fill="rgb(91,70,53)" /><ellipse cx="145" cy="49" rx="30" ry="30" transform="rotate(63,80,65)" fill="rgb(151,161,100)" /><ellipse cx="108" cy="8" rx="30" ry="30" transform="rotate(63,80,65)" fill="rgb(105,125,74)" /><ellipse cx="26" cy="5" rx="30" ry="30" transform="rotate(63,80,65)" fill="rgb(101,120,75)" /><ellipse cx="54" cy="218" rx="30" ry="30" transform="rotate(63,80,65)" fill="rgb(118,79,38)" /><ellipse cx="178" cy="193" rx="30" ry="30" transform="rotate(63,80,65)" fill="rgb(91,60,65)" /><ellipse cx="90" cy="53" rx="30" ry="30" transform="rotate(63,80,65)" fill="rgb(200,160,64)" /><ellipse cx="65" cy="150" rx="30" ry="30" transform="rotate(63,80,65)" fill="rgb(95,59,45)" /><ellipse cx="10" cy="218" rx="30" ry="30" transform="rotate(63,80,65)" fill="rgb(33,24,41)" /><ellipse cx="8" cy="158" rx="30" ry="30" transform="rotate(63,80,65)" fill="rgb(62,33,51)" /><ellipse cx="137" cy="73" rx="30" ry="30" transform="rotate(63,80,65)" fill="rgb(108,123,94)" /><ellipse cx="45" cy="31" rx="30" ry="30" transform="rotate(63,80,65)" fill="rgb(146,151,95)" /></svg>