<svg xmlns="http://www.w3.org/2000/svg" width="184" height="274" version="1.1"><circle cx="181" cy="120" r="30" fill="rgb(105,98,82)" /><circle cx="24" cy="39" r="30" fill="rgb(151,154,101)" /><circle cx="130" cy="6" r="30" fill="rgb(97,117,68)" /><circle cx="89" cy="73" r="30" fill="rgb(209,168,76)" /><circle cx="131" cy="91" r="30" fill="rgb(80,81,63)" /><circle cx="41" cy="62" r="30" fill="rgb(118,124,76)" /><circle cx="36" cy="253" r="30" fill="rgb(28,16,36)" /><circle cx="137" cy="228" r="30" fill="rgb(67,28,29)" /><circle cx="34" cy="130" r="30" fill="rgb(136,115,52)" /><circle cx="118" cy="207" r="30" fill="rgb(19,16,37)" /><circle cx="59" cy="225" r="30" fill="rgb(155,108,52)" /><circle cx="43" cy="232" r="30" fill="rgb(128,91,72)" /><circle cx="151" cy="200" r="30" fill="rgb(28,19,40)" /><circle cx="75" cy="210" r="30" fill="rgb(186,138,64)" /><circle cx="159" cy="57" r="30" fill="rgb(164,166,101)" /><circle cx="136" cy="87" r="30" fill="rgb(73,80,62)" /><circle cx="146" cy="96" r="30" fill="rgb(68,81,61)" /><circle cx="64" cy="124" r="30" fill="rgb(77,30,22)" /><circle cx="91" cy="246" r="30" fill="rgb(42,20,23)" /><circle cx="91" cy="259" r="30" fill="rgb(14,6,29)" /><circle cx="168" cy="73" r="30" fill="rgb(134,130,82)" /><circle cx="125" cy="47" r="30" fill="rgb(155,164,117)" /><circle cx="96" cy="232" r="30" fill="rgb(96,46,23)" /><circle cx="167" cy="4" r="30" fill="rgb(92,120,82)" /><circle cx="170" cy="259" r="30" fill="rgb(25,11,28)" /><circle cx="134" cy="193" r="30" fill="rgb(34,18,31)" /><circle cx="78" cy="105" r="30" fill="rgb(52,32,33)" /><circle cx="168" cy="44" r="30" fill="rgb(153,154,97)" /><circle cx="149" cy="211" r="30" fill="rgb(33,23,47)" /><circle cx="162" cy="46" r="30" fill="rgb(162,162,112)" /><circle cx="91" cy="36" r="30" fill="rgb(92,59,18)" /><circle cx="108" cy="69" r="30" fill="rgb(45,21,21)" /><circle cx="183" cy="221" r="30" fill="rgb(66,52,65)" /><circle cx="180" cy="97" r="30" fill="rgb(81,85,62)" /><circle cx="73" cy="142" r="30" fill="rgb(219,186,91)" /><circle cx="166" cy="100" r="30" fill="rgb(71,78,62)" /><circle cx="18" cy="138" r="30" fill="rgb(110,72,36)" /><circle cx="117" cy="22" r="30" fill="rgb(131,143,93)" /><circle cx="150" cy="63" r="30" fill="rgb(126,133,79)" /><circle cx="167" cy="85" r="30" fill="rgb(84,94,70)" /><circle cx="183" cy="17" r="30" fill="rgb(93,100,67)" /><circle cx="87" cy="23" r="30" fill="rgb(139,137,96)" /><circle cx="175" cy="54" r="30" fill="rgb(146,153,101)" /><circle cx="8" cy="233" r="30" fill="rgb(32,20,44)" /><circle cx="103" cy="116" r="30" fill="rgb(203,168,78)" /><circle cx="155" cy="58" r="30" fill="rgb(171,170,105)" /><circle cx="2" cy="63" r="30" fill="rgb(61,58,49)" /><circle cx="3" cy="258" r="30" fill="rgb(27,14,40)" /><circle cx="117" cy="175" r="30" fill="rgb(33,27,31)" /><circle cx="172" cy="40" r="30" fill="rgb(155,156,99)" /><circle cx="70" cy="224" r="30" fill="rgb(171,117,55)" /><circle cx="167" cy="174" r="30" fill="rgb(47,36,53)" /><circle cx="46" cy="105" r="30" fill="rgb(103,112,91)" /><circle cx="140" cy="102" r="30" fill="rgb(74,84,57)" /><circle cx="125" cy="118" r="30" fill="rgb(57,34,28)" /><circle cx="25" cy="226" r="30" fill="rgb(27,19,42)" /><circle cx="164" cy="17" r="30" fill="rgb(121,132,89)" /><circle cx="161" cy="271" r="30" fill="rgb(15,8,24)" /><circle cx="45" cy="231" r="30" fill="rgb(113,69,32)" /><circle cx="83" cy="139" r="30" fill="rgb(235,204,111)" /><circle cx="133" cy="138" r="30" fill="rgb(49,25,25)" /><circle cx="179" cy="182" r="30" fill="rgb(83,61,64)" /><circle cx="127" cy="195" r="30" fill="rgb(20,11,32)" /><circle cx="80" cy="248" r="30" fill="rgb(61,40,37)" /><circle cx="183" cy="251" r="30" fill="rgb(44,27,46)" /><circle cx="136" cy="164" r="30" fill="rgb(77,53,27)" /><circle cx="36" cy="51" r="30" fill="rgb(172,173,115)" /><circle cx="178" cy="192" r="30" fill="rgb(90,61,63)" /><circle cx="116" cy="202" r="30" fill="rgb(18,16,37)" /><circle cx="115" cy="189" r="30" fill="rgb(32,23,40)" /><circle cx="159" cy="110" r="30" fill="rgb(147,126,63)" /><circle cx="177" cy="131" r="30" fill="rgb(165,144,91)" /><circle cx="10" cy="99" r="30" fill="rgb(79,77,64)" /><circle cx="36" cy="28" r="30" fill="rgb(134,141,87)" /><circle cx="99" cy="20" r="30" fill="rgb(127,140,87)" /><circle cx="152" cy="1" r="30" fill="rgb(63,100,66)" /><circle cx="63" cy="116" r="30" fill="rgb(54,28,39)" /><circle cx="46" cy="170" r="30" fill="rgb(51,39,53)" /><circle cx="78" cy="202" r="30" fill="rgb(34,19,42)" /><circle cx="77" cy="55" r="30" fill="rgb(218,176,90)" /><circle cx="55" cy="162" r="30" fill="rgb(55,40,43)" /><circle cx="180" cy="134" r="30" fill="rgb(155,132,90)" /><circle cx="15" cy="253" r="30" fill="rgb(27,15,39)" /><circle cx="31" cy="63" r="30" fill="rgb(96,96,58)" /><circle cx="160" cy="107" r="30" fill="rgb(131,123,77)" /><circle cx="15" cy="249" r="30" fill="rgb(32,20,44)" /><circle cx="66" cy="220" r="30" fill="rgb(178,123,58)" /><circle cx="86" cy="260" r="30" fill="rgb(20,11,30)" /><circle cx="170" cy="46" r="30" fill="rgb(153,154,96)" /><circle cx="80" cy="66" r="30" fill="rgb(220,179,100)" /><circle cx="168" cy="149" r="30" fill="rgb(119,66,58)" /><circle cx="166" cy="10" r="30" fill="rgb(114,128,79)" /><circle cx="132" cy="102" r="30" fill="rgb(64,68,53)" /><circle cx="169" cy="20" r="30" fill="rgb(126,136,84)" /><circle cx="131" cy="135" r="30" fill="rgb(132,100,53)" /><circle cx="87" cy="233" r="30" fill="rgb(97,40,21)" /><circle cx="123" cy="216" r="30" fill="rgb(106,77,63)" /><circle cx="183" cy="199" r="30" fill="rgb(88,75,84)" /><circle cx="171" cy="142" r="30" fill="rgb(100,53,43)" /><circle cx="64" cy="111" r="30" fill="rgb(54,21,28)" /><circle cx="136" cy="181" r="30" fill="rgb(38,18,30)" /><circle cx="119" cy="103" r="30" fill="rgb(39,25,38)" /><circle cx="23" cy="78" r="30" fill="rgb(81,80,52)" /><circle cx="138" cy="120" r="30" fill="rgb(51,32,26)" /><circle cx="115" cy="46" r="30" fill="rgb(26,14,26)" /><circle cx="123" cy="256" r="30" fill="rgb(8,6,27)" /><circle cx="21" cy="167" r="30" fill="rgb(154,121,54)" /><circle cx="144" cy="266" r="30" fill="rgb(8,3,23)" /><circle cx="106" cy="170" r="30" fill="rgb(33,22,39)" /><circle cx="50" cy="266" r="30" fill="rgb(28,16,36)" /><circle cx="137" cy="162" r="30" fill="rgb(109,84,53)" /><circle cx="176" cy="223" r="30" fill="rgb(33,21,41)" /><circle cx="55" cy="253" r="30" fill="rgb(55,20,26)" /><circle cx="145" cy="111" r="30" fill="rgb(75,78,49)" /><circle cx="154" cy="58" r="30" fill="rgb(169,168,103)" /><circle cx="73" cy="166" r="30" fill="rgb(63,46,36)" /><circle cx="34" cy="236" r="30" fill="rgb(34,16,38)" /><circle cx="117" cy="180" r="30" fill="rgb(27,22,26)" /><circle cx="7" cy="93" r="30" fill="rgb(73,67,51)" /><circle cx="111" cy="263" r="30" fill="rgb(10,7,24)" /><circle cx="28" cy="116" r="30" fill="rgb(95,73,34)" /><circle cx="28" cy="229" r="30" fill="rgb(30,20,44)" /><circle cx="75" cy="204" r="30" fill="rgb(53,25,22)" /><circle cx="181" cy="146" r="30" fill="rgb(95,64,61)" /><circle cx="51" cy="258" r="30" fill="rgb(43,20,40)" /><circle cx="116" cy="180" r="30" fill="rgb(28,23,29)" /><circle cx="168" cy="80" r="30" fill="rgb(86,94,71)" /><circle cx="34" cy="48" r="30" fill="rgb(171,173,110)" /><circle cx="60" cy="201" r="30" fill="rgb(146,110,86)" /><circle cx="138" cy="254" r="30" fill="rgb(10,7,28)" /><circle cx="100" cy="245" r="30" fill="rgb(48,24,37)" /><circle cx="177" cy="212" r="30" fill="rgb(50,37,55)" /><circle cx="72" cy="238" r="30" fill="rgb(83,36,28)" /><circle cx="146" cy="132" r="30" fill="rgb(46,30,43)" /><circle cx="54" cy="244" r="30" fill="rgb(150,96,52)" /><circle cx="69" cy="138" r="30" fill="rgb(228,193,93)" /><circle cx="112" cy="241" r="30" fill="rgb(30,16,31)" /><circle cx="152" cy="137" r="30" fill="rgb(45,25,52)" /><circle cx="110" cy="15" r="30" fill="rgb(115,129,78)" /><circle cx="120" cy="52" r="30" fill="rgb(27,14,23)" /><circle cx="36" cy="208" r="30" fill="rgb(64,26,17)" /><circle cx="178" cy="211" r="30" fill="rgb(55,42,60)" /><circle cx="51" cy="85" r="30" fill="rgb(68,67,46)" /><circle cx="44" cy="61" r="30" fill="rgb(165,172,121)" /><circle cx="21" cy="133" r="30" fill="rgb(107,71,49)" /><circle cx="94" cy="243" r="30" fill="rgb(55,25,27)" /><circle cx="18" cy="102" r="30" fill="rgb(70,63,45)" /><circle cx="47" cy="224" r="30" fill="rgb(36,8,0)" /><circle cx="94" cy="2" r="30" fill="rgb(98,121,79)" /><circle cx="86" cy="188" r="30" fill="rgb(42,26,39)" /><circle cx="111" cy="267" r="30" fill="rgb(12,8,25)" /><circle cx="23" cy="117" r="30" fill="rgb(117,94,50)" /><circle cx="164" cy="100" r="30" fill="rgb(65,69,52)" /><circle cx="174" cy="45" r="30" fill="rgb(156,157,97)" /><circle cx="106" cy="15" r="30" fill="rgb(114,126,76)" /><circle cx="90" cy="175" r="30" fill="rgb(58,44,41)" /><circle cx="114" cy="138" r="30" fill="rgb(117,82,18)" /><circle cx="175" cy="9" r="30" fill="rgb(112,128,81)" /><circle cx="21" cy="98" r="30" fill="rgb(89,88,70)" /><circle cx="101" cy="49" r="30" fill="rgb(115,73,23)" /><circle cx="173" cy="227" r="30" fill="rgb(36,27,48)" /><circle cx="75" cy="47" r="30" fill="rgb(232,192,94)" /><circle cx="74" cy="139" r="30" fill="rgb(227,194,97)" /><circle cx="170" cy="37" r="30" fill="rgb(148,148,96)" /><circle cx="143" cy="145" r="30" fill="rgb(16,13,32)" /><circle cx="18" cy="63" r="30" fill="rgb(108,114,70)" /><circle cx="107" cy="210" r="30" fill="rgb(16,14,28)" /><circle cx="100" cy="209" r="30" fill="rgb(29,25,52)" /><circle cx="62" cy="211" r="30" fill="rgb(197,150,68)" /><circle cx="84" cy="121" r="30" fill="rgb(228,189,94)" /><circle cx="166" cy="223" r="30" fill="rgb(31,23,46)" /><circle cx="52" cy="41" r="30" fill="rgb(153,156,99)" /><circle cx="166" cy="162" r="30" fill="rgb(47,34,51)" /><circle cx="131" cy="223" r="30" fill="rgb(75,19,6)" /><circle cx="167" cy="192" r="30" fill="rgb(40,31,52)" /><circle cx="16" cy="177" r="30" fill="rgb(96,72,62)" /><circle cx="95" cy="74" r="30" fill="rgb(208,163,80)" /><circle cx="135" cy="81" r="30" fill="rgb(67,75,60)" /><circle cx="18" cy="227" r="30" fill="rgb(23,15,38)" /><circle cx="20" cy="207" r="30" fill="rgb(52,36,39)" /><circle cx="18" cy="20" r="30" fill="rgb(125,136,80)" /><circle cx="117" cy="67" r="30" fill="rgb(29,12,31)" /><circle cx="28" cy="80" r="30" fill="rgb(72,74,52)" /><circle cx="26" cy="203" r="30" fill="rgb(125,77,54)" /><circle cx="101" cy="139" r="30" fill="rgb(231,197,99)" /><circle cx="37" cy="1" r="30" fill="rgb(75,106,65)" /><circle cx="96" cy="188" r="30" fill="rgb(37,27,38)" /><circle cx="37" cy="262" r="30" fill="rgb(28,11,30)" /><circle cx="33" cy="23" r="30" fill="rgb(129,138,85)" /><circle cx="76" cy="259" r="30" fill="rgb(33,11,32)" /><circle cx="100" cy="197" r="30" fill="rgb(21,17,34)" /><circle cx="131" cy="170" r="30" fill="rgb(77,53,41)" /><circle cx="128" cy="146" r="30" fill="rgb(53,39,38)" /><circle cx="94" cy="257" r="30" fill="rgb(12,7,29)" /><circle cx="18" cy="249" r="30" fill="rgb(31,19,41)" /><circle cx="123" cy="213" r="30" fill="rgb(20,16,31)" /><circle cx="104" cy="264" r="30" fill="rgb(6,3,22)" /><circle cx="52" cy="98" r="30" fill="rgb(109,114,82)" /><circle cx="18" cy="168" r="30" fill="rgb(155,118,66)" /><circle cx="176" cy="229" r="30" fill="rgb(46,32,45)" /><circle cx="104" cy="243" r="30" fill="rgb(30,8,20)" /><circle cx="126" cy="100" r="30" fill="rgb(35,22,31)" /><circle cx="139" cy="202" r="30" fill="rgb(37,19,35)" /><circle cx="50" cy="97" r="30" fill="rgb(103,107,80)" /><circle cx="149" cy="251" r="30" fill="rgb(8,7,25)" /><circle cx="128" cy="241" r="30" fill="rgb(23,14,31)" /><circle cx="144" cy="170" r="30" fill="rgb(31,17,42)" /><circle cx="18" cy="198" r="30" fill="rgb(53,30,48)" /><circle cx="109" cy="144" r="30" fill="rgb(114,80,42)" /><circle cx="10" cy="131" r="30" fill="rgb(95,64,36)" /><circle cx="19" cy="169" r="30" fill="rgb(149,109,60)" /><circle cx="38" cy="121" r="30" fill="rgb(82,54,30)" /><circle cx="12" cy="264" r="30" fill="rgb(20,7,33)" /><circle cx="16" cy="71" r="30" fill="rgb(92,102,75)" /><circle cx="10" cy="154" r="30" fill="rgb(99,49,42)" /><circle cx="31" cy="22" r="30" fill="rgb(130,138,89)" /><circle cx="84" cy="124" r="30" fill="rgb(235,195,100)" /><circle cx="22" cy="145" r="30" fill="rgb(146,88,50)" /><circle cx="77" cy="210" r="30" fill="rgb(185,137,65)" /><circle cx="86" cy="91" r="30" fill="rgb(176,132,71)" /><circle cx="30" cy="88" r="30" fill="rgb(71,73,51)" /><circle cx="0" cy="133" r="30" fill="rgb(85,49,35)" /><circle cx="87" cy="219" r="30" fill="rgb(180,125,58)" /><circle cx="78" cy="51" r="30" fill="rgb(220,179,87)" /><circle cx="86" cy="122" r="30" fill="rgb(232,194,95)" /><circle cx="14" cy="44" r="30" fill="rgb(144,151,97)" /><circle cx="70" cy="72" r="30" fill="rgb(218,172,87)" /><circle cx="137" cy="198" r="30" fill="rgb(37,19,33)" /><circle cx="55" cy="152" r="30" fill="rgb(88,64,52)" /><circle cx="31" cy="203" r="30" fill="rgb(155,111,84)" /><circle cx="121" cy="155" r="30" fill="rgb(58,46,34)" /><circle cx="14" cy="22" r="30" fill="rgb(123,134,78)" /><circle cx="168" cy="253" r="30" fill="rgb(28,13,32)" /><circle cx="81" cy="196" r="30" fill="rgb(40,26,41)" /><circle cx="6" cy="80" r="30" fill="rgb(46,43,38)" /><circle cx="98" cy="10" r="30" fill="rgb(107,123,78)" /><circle cx="8" cy="26" r="30" fill="rgb(131,141,88)" /><circle cx="157" cy="192" r="30" fill="rgb(37,28,47)" /><circle cx="79" cy="251" r="30" fill="rgb(61,38,44)" /><circle cx="135" cy="6" r="30" fill="rgb(96,118,69)" /><circle cx="112" cy="13" r="30" fill="rgb(115,132,80)" /><circle cx="35" cy="269" r="30" fill="rgb(37,14,30)" /><circle cx="169" cy="248" r="30" fill="rgb(32,18,35)" /><circle cx="175" cy="32" r="30" fill="rgb(144,146,96)" /><circle cx="76" cy="248" r="30" fill="rgb(54,32,34)" /><circle cx="43" cy="11" r="30" fill="rgb(108,118,68)" /><circle cx="142" cy="262" r="30" fill="rgb(12,4,25)" /><circle cx="153" cy="264" r="30" fill="rgb(8,5,24)" /><circle cx="158" cy="17" r="30" fill="rgb(119,137,99)" /><circle cx="181" cy="235" r="30" fill="rgb(82,41,49)" /><circle cx="36" cy="118" r="30" fill="rgb(104,79,49)" /><circle cx="88" cy="197" r="30" fill="rgb(32,21,38)" /><circle cx="67" cy="16" r="30" fill="rgb(121,136,81)" /><circle cx="110" cy="143" r="30" fill="rgb(118,81,29)" /><circle cx="93" cy="139" r="30" fill="rgb(241,209,122)" /><circle cx="65" cy="169" r="30" fill="rgb(45,29,40)" /><circle cx="74" cy="74" r="30" fill="rgb(212,176,90)" /><circle cx="7" cy="268" r="30" fill="rgb(26,13,39)" /><circle cx="159" cy="153" r="30" fill="rgb(43,36,52)" /><circle cx="99" cy="151" r="30" fill="rgb(119,95,59)" /><circle cx="177" cy="158" r="30" fill="rgb(88,53,60)" /><circle cx="124" cy="225" r="30" fill="rgb(93,39,13)" /><circle cx="78" cy="231" r="30" fill="rgb(166,120,61)" /><circle cx="102" cy="0" r="30" fill="rgb(70,97,56)" /><circle cx="62" cy="199" r="30" fill="rgb(45,22,40)" /><circle cx="96" cy="15" r="30" fill="rgb(113,127,78)" /><circle cx="108" cy="55" r="30" fill="rgb(46,24,27)" /><circle cx="112" cy="225" r="30" fill="rgb(120,70,43)" /><circle cx="177" cy="247" r="30" fill="rgb(35,16,35)" /><circle cx="23" cy="268" r="30" fill="rgb(20,8,32)" /><circle cx="97" cy="234" r="30" fill="rgb(122,70,49)" /><circle cx="15" cy="101" r="30" fill="rgb(77,77,67)" /><circle cx="149" cy="230" r="30" fill="rgb(14,9,31)" /><circle cx="57" cy="0" r="30" fill="rgb(71,101,63)" /><circle cx="170" cy="78" r="30" fill="rgb(81,88,70)" /><circle cx="95" cy="9" r="30" fill="rgb(107,123,76)" /><circle cx="89" cy="236" r="30" fill="rgb(104,52,38)" /><circle cx="15" cy="270" r="30" fill="rgb(23,10,36)" /><circle cx="101" cy="264" r="30" fill="rgb(9,6,25)" /><circle cx="46" cy="50" r="30" fill="rgb(166,166,116)" /><circle cx="19" cy="220" r="30" fill="rgb(19,15,40)" /><circle cx="147" cy="74" r="30" fill="rgb(123,142,112)" /><circle cx="70" cy="69" r="30" fill="rgb(224,177,95)" /><circle cx="40" cy="199" r="30" fill="rgb(121,81,56)" /><circle cx="38" cy="159" r="30" fill="rgb(49,43,57)" /><circle cx="171" cy="35" r="30" fill="rgb(147,147,95)" /><circle cx="157" cy="49" r="30" fill="rgb(160,165,109)" /><circle cx="80" cy="246" r="30" fill="rgb(59,31,27)" /><circle cx="34" cy="254" r="30" fill="rgb(27,16,32)" /><circle cx="142" cy="142" r="30" fill="rgb(16,21,27)" /><circle cx="30" cy="204" r="30" fill="rgb(120,75,54)" /><circle cx="63" cy="225" r="30" fill="rgb(144,93,46)" /><circle cx="180" cy="86" r="30" fill="rgb(89,92,75)" /><circle cx="139" cy="226" r="30" fill="rgb(67,33,34)" /><circle cx="143" cy="64" r="30" fill="rgb(85,108,80)" /><circle cx="171" cy="115" r="30" fill="rgb(114,105,76)" /><circle cx="87" cy="204" r="30" fill="rgb(26,17,38)" /><circle cx="108" cy="224" r="30" fill="rgb(100,47,13)" /><circle cx="122" cy="200" r="30" fill="rgb(22,17,39)" /><circle cx="122" cy="166" r="30" fill="rgb(60,45,40)" /><circle cx="8" cy="125" r="30" fill="rgb(105,60,37)" /><circle cx="153" cy="91" r="30" fill="rgb(71,84,66)" /><circle cx="111" cy="271" r="30" fill="rgb(19,11,32)" /><circle cx="3" cy="135" r="30" fill="rgb(94,61,46)" /><circle cx="57" cy="232" r="30" fill="rgb(193,146,74)" /><circle cx="16" cy="122" r="30" fill="rgb(99,68,37)" /><circle cx="131" cy="73" r="30" fill="rgb(93,102,75)" /><circle cx="83" cy="161" r="30" fill="rgb(80,57,39)" /><circle cx="157" cy="261" r="30" fill="rgb(11,8,27)" /><circle cx="141" cy="64" r="30" fill="rgb(87,112,83)" /><circle cx="157" cy="118" r="30" fill="rgb(139,119,60)" /><circle cx="174" cy="134" r="30" fill="rgb(123,115,66)" /><circle cx="103" cy="191" r="30" fill="rgb(27,20,36)" /><circle cx="11" cy="193" r="30" fill="rgb(51,38,48)" /><circle cx="103" cy="140" r="30" fill="rgb(220,187,92)" /><circle cx="12" cy="161" r="30" fill="rgb(125,72,56)" /><circle cx="36" cy="178" r="30" fill="rgb(61,42,44)" /><circle cx="130" cy="272" r="30" fill="rgb(12,8,31)" /><circle cx="148" cy="131" r="30" fill="rgb(39,18,23)" /><circle cx="38" cy="82" r="30" fill="rgb(84,84,58)" /><circle cx="123" cy="101" r="30" fill="rgb(39,29,40)" /><circle cx="144" cy="206" r="30" fill="rgb(27,14,34)" /><circle cx="1" cy="176" r="30" fill="rgb(84,71,78)" /><circle cx="18" cy="71" r="30" fill="rgb(97,103,77)" /><circle cx="169" cy="163" r="30" fill="rgb(76,53,63)" /><circle cx="115" cy="210" r="30" fill="rgb(17,14,45)" /><circle cx="171" cy="53" r="30" fill="rgb(154,155,97)" /><circle cx="14" cy="102" r="30" fill="rgb(62,63,57)" /><circle cx="133" cy="270" r="30" fill="rgb(7,6,24)" /><circle cx="45" cy="239" r="30" fill="rgb(114,64,39)" /><circle cx="2" cy="97" r="30" fill="rgb(53,44,45)" /><circle cx="118" cy="246" r="30" fill="rgb(16,7,24)" /><circle cx="109" cy="32" r="30" fill="rgb(43,29,18)" /><circle cx="113" cy="118" r="30" fill="rgb(94,53,21)" /><circle cx="131" cy="143" r="30" fill="rgb(34,21,31)" /><circle cx="120" cy="21" r="30" fill="rgb(127,139,89)" /><circle cx="161" cy="220" r="30" fill="rgb(29,20,41)" /><circle cx="85" cy="169" r="30" fill="rgb(78,60,46)" /><circle cx="70" cy="250" r="30" fill="rgb(56,33,39)" /><circle cx="147" cy="153" r="30" fill="rgb(29,18,26)" /><circle cx="15" cy="233" r="30" fill="rgb(36,24,46)" /><circle cx="178" cy="238" r="30" fill="rgb(59,35,48)" /><circle cx="53" cy="165" r="30" fill="rgb(59,46,53)" /><circle cx="147" cy="27" r="30" fill="rgb(131,143,93)" /><circle cx="27" cy="264" r="30" fill="rgb(21,9,33)" /><circle cx="162" cy="111" r="30" fill="rgb(119,102,48)" /><circle cx="158" cy="215" r="30" fill="rgb(32,22,46)" /><circle cx="159" cy="32" r="30" fill="rgb(143,144,84)" /><circle cx="82" cy="5" r="30" fill="rgb(97,118,75)" /><circle cx="30" cy="267" r="30" fill="rgb(23,11,35)" /><circle cx="133" cy="3" r="30" fill="rgb(80,105,63)" /><circle cx="132" cy="67" r="30" fill="rgb(68,81,55)" /><circle cx="114" cy="24" r="30" fill="rgb(128,138,86)" /><circle cx="143" cy="239" r="30" fill="rgb(15,4,21)" /><circle cx="63" cy="4" r="30" fill="rgb(93,116,72)" /><circle cx="144" cy="168" r="30" fill="rgb(31,17,43)" /><circle cx="119" cy="145" r="30" fill="rgb(46,30,40)" /><circle cx="166" cy="100" r="30" fill="rgb(71,78,62)" /><circle cx="82" cy="218" r="30" fill="rgb(182,132,63)" /><circle cx="136" cy="125" r="30" fill="rgb(75,48,29)" /><circle cx="160" cy="79" r="30" fill="rgb(96,110,77)" /><circle cx="28" cy="108" r="30" fill="rgb(90,86,57)" /><circle cx="148" cy="228" r="30" fill="rgb(16,11,33)" /><circle cx="58" cy="108" r="30" fill="rgb(93,85,66)" /><circle cx="59" cy="99" r="30" fill="rgb(71,51,40)" /><circle cx="175" cy="242" r="30" fill="rgb(56,35,50)" /><circle cx="124" cy="194" r="30" fill="rgb(20,15,37)" /><circle cx="36" cy="162" r="30" fill="rgb(52,39,49)" /><circle cx="107" cy="11" r="30" fill="rgb(109,126,74)" /><circle cx="66" cy="30" r="30" fill="rgb(139,147,88)" /><circle cx="50" cy="192" r="30" fill="rgb(59,35,49)" /><circle cx="116" cy="226" r="30" fill="rgb(99,49,16)" /><circle cx="114" cy="60" r="30" fill="rgb(32,18,35)" /><circle cx="55" cy="153" r="30" fill="rgb(87,63,53)" /><circle cx="128" cy="215" r="30" fill="rgb(31,11,22)" /><circle cx="47" cy="177" r="30" fill="rgb(52,39,48)" /><circle cx="156" cy="47" r="30" fill="rgb(164,166,116)" /><circle cx="37" cy="208" r="30" fill="rgb(86,48,39)" /><circle cx="33" cy="188" r="30" fill="rgb(58,41,51)" /><circle cx="159" cy="196" r="30" fill="rgb(29,21,44)" /><circle cx="41" cy="271" r="30" fill="rgb(25,10,31)" /><circle cx="15" cy="9" r="30" fill="rgb(106,119,65)" /><circle cx="67" cy="225" r="30" fill="rgb(160,108,50)" /><circle cx="51" cy="144" r="30" fill="rgb(50,35,32)" /><circle cx="110" cy="100" r="30" fill="rgb(60,30,32)" /><circle cx="145" cy="67" r="30" fill="rgb(79,98,68)" /><circle cx="141" cy="239" r="30" fill="rgb(24,12,26)" /><circle cx="60" cy="125" r="30" fill="rgb(51,25,36)" /><circle cx="115" cy="42" r="30" fill="rgb(24,11,21)" /><circle cx="90" cy="250" r="30" fill="rgb(38,21,31)" /><circle cx="179" cy="254" r="30" fill="rgb(42,27,48)" /><circle cx="59" cy="164" r="30" fill="rgb(56,40,40)" /><circle cx="60" cy="1" r="30" fill="rgb(80,108,70)" /><circle cx="135" cy="91" r="30" fill="rgb(68,72,49)" /><circle cx="85" cy="30" r="30" fill="rgb(96,56,21)" /><circle cx="168" cy="71" r="30" fill="rgb(156,151,93)" /><circle cx="105" cy="44" r="30" fill="rgb(49,28,25)" /><circle cx="34" cy="199" r="30" fill="rgb(140,99,69)" /><circle cx="44" cy="39" r="30" fill="rgb(154,157,102)" /><circle cx="6" cy="271" r="30" fill="rgb(21,11,38)" /></svg>