<svg xmlns="http://www.w3.org/2000/svg" width="184" height="274" version="1.1"><rect x="36" y="128" width="30",height="30", fill="rgb(100,74,25)"/><rect x="39" y="47" width="30",height="30", fill="rgb(167,166,109)"/><rect x="57" y="126" width="30",height="30", fill="rgb(42,22,31)"/><rect x="175" y="85" width="30",height="30", fill="rgb(76,80,63)"/><rect x="26" y="195" width="30",height="30", fill="rgb(92,59,54)"/><rect x="95" y="152" width="30",height="30", fill="rgb(121,88,53)"/><rect x="68" y="154" width="30",height="30", fill="rgb(79,55,31)"/><rect x="135" y="51" width="30",height="30", fill="rgb(121,130,75)"/><rect x="173" y="148" width="30",height="30", fill="rgb(100,54,54)"/><rect x="178" y="260" width="30",height="30", fill="rgb(26,8,30)"/><rect x="19" y="268" width="30",height="30", fill="rgb(21,9,33)"/><rect x="15" y="223" width="30",height="30", fill="rgb(30,20,45)"/><rect x="120" y="183" width="30",height="30", fill="rgb(31,24,31)"/><rect x="49" y="199" width="30",height="30", fill="rgb(64,40,62)"/><rect x="180" y="264" width="30",height="30", fill="rgb(36,18,42)"/><rect x="101" y="27" width="30",height="30", fill="rgb(73,56,28)"/><rect x="117" y="40" width="30",height="30", fill="rgb(13,6,0)"/><rect x="129" y="24" width="30",height="30", fill="rgb(124,132,81)"/><rect x="154" y="174" width="30",height="30", fill="rgb(33,25,49)"/><rect x="125" y="102" width="30",height="30", fill="rgb(34,21,31)"/><rect x="5" y="75" width="30",height="30", fill="rgb(76,73,58)"/><rect x="143" y="231" width="30",height="30", fill="rgb(34,6,21)"/><rect x="175" y="84" width="30",height="30", fill="rgb(74,79,59)"/><rect x="75" y="135" width="30",height="30", fill="rgb(232,198,101)"/><rect x="107" y="214" width="30",height="30", fill="rgb(13,10,37)"/><rect x="170" y="158" width="30",height="30", fill="rgb(139,88,69)"/><rect x="94" y="4" width="30",height="30", fill="rgb(102,123,80)"/><rect x="46" y="194" width="30",height="30", fill="rgb(53,33,45)"/><rect x="55" y="53" width="30",height="30", fill="rgb(178,176,115)"/><rect x="28" y="266" width="30",height="30", fill="rgb(22,10,34)"/><rect x="118" y="151" width="30",height="30", fill="rgb(40,27,34)"/><rect x="163" y="104" width="30",height="30", fill="rgb(85,85,57)"/><rect x="44" y="150" width="30",height="30", fill="rgb(45,28,44)"/><rect x="117" y="258" width="30",height="30", fill="rgb(10,6,23)"/><rect x="47" y="143" width="30",height="30", fill="rgb(20,11,32)"/><rect x="136" y="54" width="30",height="30", fill="rgb(117,129,81)"/><rect x="163" y="3" width="30",height="30", fill="rgb(78,109,75)"/><rect x="53" y="111" width="30",height="30", fill="rgb(60,55,25)"/><rect x="111" y="72" width="30",height="30", fill="rgb(42,25,41)"/><rect x="7" y="54" width="30",height="30", fill="rgb(125,135,83)"/><rect x="40" y="5" width="30",height="30", fill="rgb(106,125,79)"/><rect x="41" y="186" width="30",height="30", fill="rgb(66,41,37)"/><rect x="87" y="145" width="30",height="30", fill="rgb(230,199,108)"/><rect x="81" y="92" width="30",height="30", fill="rgb(231,185,99)"/><rect x="70" y="185" width="30",height="30", fill="rgb(40,27,37)"/><rect x="108" y="51" width="30",height="30", fill="rgb(37,16,21)"/><rect x="144" y="273" width="30",height="30", fill="rgb(8,6,28)"/><rect x="172" y="178" width="30",height="30", fill="rgb(58,44,59)"/><rect x="80" y="220" width="30",height="30", fill="rgb(174,125,48)"/><rect x="149" y="166" width="30",height="30", fill="rgb(29,24,46)"/><rect x="137" y="113" width="30",height="30", fill="rgb(49,43,29)"/><rect x="167" y="196" width="30",height="30", fill="rgb(38,29,50)"/><rect x="105" y="5" width="30",height="30", fill="rgb(100,123,77)"/><rect x="72" y="52" width="30",height="30", fill="rgb(215,172,94)"/><rect x="41" y="187" width="30",height="30", fill="rgb(63,39,39)"/><rect x="34" y="56" width="30",height="30", fill="rgb(136,140,90)"/><rect x="179" y="85" width="30",height="30", fill="rgb(98,101,82)"/><rect x="48" y="103" width="30",height="30", fill="rgb(120,130,105)"/><rect x="137" y="193" width="30",height="30", fill="rgb(36,18,30)"/><rect x="140" y="247" width="30",height="30", fill="rgb(15,8,26)"/><rect x="128" y="226" width="30",height="30", fill="rgb(99,42,25)"/><rect x="125" y="126" width="30",height="30", fill="rgb(43,27,28)"/><rect x="12" y="33" width="30",height="30", fill="rgb(132,144,94)"/><rect x="126" y="119" width="30",height="30", fill="rgb(51,31,32)"/><rect x="138" y="241" width="30",height="30", fill="rgb(17,8,25)"/><rect x="43" y="52" width="30",height="30", fill="rgb(159,162,109)"/><rect x="32" y="160" width="30",height="30", fill="rgb(71,37,35)"/><rect x="106" y="166" width="30",height="30", fill="rgb(37,26,40)"/><rect x="105" y="55" width="30",height="30", fill="rgb(94,63,35)"/><rect x="150" y="240" width="30",height="30", fill="rgb(16,8,29)"/><rect x="88" y="34" width="30",height="30", fill="rgb(103,68,28)"/><rect x="115" y="158" width="30",height="30", fill="rgb(52,38,37)"/><rect x="10" y="174" width="30",height="30", fill="rgb(87,68,53)"/><rect x="116" y="194" width="30",height="30", fill="rgb(18,16,37)"/><rect x="145" y="259" width="30",height="30", fill="rgb(8,5,24)"/><rect x="113" y="167" width="30",height="30", fill="rgb(37,31,41)"/><rect x="87" y="8" width="30",height="30", fill="rgb(103,121,73)"/><rect x="97" y="156" width="30",height="30", fill="rgb(87,68,53)"/><rect x="65" y="41" width="30",height="30", fill="rgb(148,132,98)"/><rect x="7" y="4" width="30",height="30", fill="rgb(100,123,81)"/><rect x="52" y="108" width="30",height="30", fill="rgb(97,98,67)"/><rect x="35" y="63" width="30",height="30", fill="rgb(103,108,68)"/><rect x="3" y="197" width="30",height="30", fill="rgb(77,56,55)"/><rect x="31" y="175" width="30",height="30", fill="rgb(42,38,53)"/><rect x="92" y="15" width="30",height="30", fill="rgb(116,130,81)"/><rect x="17" y="163" width="30",height="30", fill="rgb(147,110,68)"/><rect x="1" y="129" width="30",height="30", fill="rgb(114,76,55)"/><rect x="37" y="33" width="30",height="30", fill="rgb(144,149,95)"/><rect x="180" y="78" width="30",height="30", fill="rgb(79,86,68)"/><rect x="26" y="15" width="30",height="30", fill="rgb(117,129,79)"/><rect x="178" y="93" width="30",height="30", fill="rgb(88,90,76)"/><rect x="59" y="8" width="30",height="30", fill="rgb(103,117,66)"/><rect x="15" y="271" width="30",height="30", fill="rgb(21,11,36)"/><rect x="117" y="190" width="30",height="30", fill="rgb(30,21,42)"/><rect x="140" y="37" width="30",height="30", fill="rgb(140,149,102)"/><rect x="3" y="122" width="30",height="30", fill="rgb(112,75,56)"/><rect x="144" y="252" width="30",height="30", fill="rgb(8,7,25)"/><rect x="132" y="233" width="30",height="30", fill="rgb(56,27,29)"/><rect x="97" y="96" width="30",height="30", fill="rgb(81,54,45)"/><rect x="134" y="100" width="30",height="30", fill="rgb(67,76,55)"/><rect x="73" y="265" width="30",height="30", fill="rgb(34,11,27)"/><rect x="3" y="28" width="30",height="30", fill="rgb(138,148,96)"/><rect x="1" y="88" width="30",height="30", fill="rgb(66,56,54)"/><rect x="58" y="240" width="30",height="30", fill="rgb(152,107,65)"/><rect x="162" y="99" width="30",height="30", fill="rgb(66,70,55)"/><rect x="96" y="272" width="30",height="30", fill="rgb(20,15,37)"/><rect x="113" y="22" width="30",height="30", fill="rgb(126,138,88)"/><rect x="180" y="93" width="30",height="30", fill="rgb(86,88,77)"/><rect x="85" y="1" width="30",height="30", fill="rgb(92,115,73)"/><rect x="112" y="198" width="30",height="30", fill="rgb(17,18,38)"/><rect x="93" y="156" width="30",height="30", fill="rgb(100,76,50)"/><rect x="7" y="71" width="30",height="30", fill="rgb(91,95,72)"/><rect x="5" y="252" width="30",height="30", fill="rgb(26,14,38)"/><rect x="4" y="254" width="30",height="30", fill="rgb(23,11,35)"/><rect x="57" y="189" width="30",height="30", fill="rgb(36,19,37)"/><rect x="155" y="202" width="30",height="30", fill="rgb(23,18,41)"/><rect x="171" y="210" width="30",height="30", fill="rgb(38,29,50)"/><rect x="13" y="38" width="30",height="30", fill="rgb(148,158,105)"/><rect x="174" y="165" width="30",height="30", fill="rgb(117,75,63)"/><rect x="166" y="23" width="30",height="30", fill="rgb(133,142,89)"/><rect x="128" y="133" width="30",height="30", fill="rgb(154,117,49)"/><rect x="62" y="240" width="30",height="30", fill="rgb(120,66,38)"/><rect x="78" y="113" width="30",height="30", fill="rgb(122,90,51)"/><rect x="49" y="8" width="30",height="30", fill="rgb(103,117,66)"/><rect x="39" y="226" width="30",height="30", fill="rgb(24,15,44)"/><rect x="18" y="258" width="30",height="30", fill="rgb(21,9,33)"/><rect x="9" y="39" width="30",height="30", fill="rgb(150,157,105)"/><rect x="66" y="4" width="30",height="30", fill="rgb(95,118,76)"/><rect x="78" y="206" width="30",height="30", fill="rgb(67,39,27)"/><rect x="28" y="88" width="30",height="30", fill="rgb(80,79,58)"/><rect x="136" y="151" width="30",height="30", fill="rgb(38,28,27)"/><rect x="59" y="213" width="30",height="30", fill="rgb(183,133,70)"/><rect x="16" y="68" width="30",height="30", fill="rgb(94,105,75)"/><rect x="111" y="116" width="30",height="30", fill="rgb(144,103,39)"/><rect x="54" y="51" width="30",height="30", fill="rgb(158,162,103)"/><rect x="155" y="231" width="30",height="30", fill="rgb(20,15,37)"/><rect x="1" y="6" width="30",height="30", fill="rgb(112,129,85)"/><rect x="130" y="247" width="30",height="30", fill="rgb(14,7,25)"/><rect x="117" y="225" width="30",height="30", fill="rgb(102,52,15)"/><rect x="92" y="91" width="30",height="30", fill="rgb(151,114,62)"/><rect x="112" y="209" width="30",height="30", fill="rgb(21,11,45)"/><rect x="122" y="227" width="30",height="30", fill="rgb(91,41,14)"/><rect x="177" y="167" width="30",height="30", fill="rgb(88,62,61)"/><rect x="64" y="176" width="30",height="30", fill="rgb(41,29,43)"/><rect x="18" y="175" width="30",height="30", fill="rgb(90,64,51)"/><rect x="57" y="136" width="30",height="30", fill="rgb(61,32,28)"/><rect x="0" y="128" width="30",height="30", fill="rgb(73,38,18)"/><rect x="37" y="150" width="30",height="30", fill="rgb(55,44,52)"/><rect x="77" y="256" width="30",height="30", fill="rgb(37,14,34)"/><rect x="91" y="181" width="30",height="30", fill="rgb(41,28,37)"/><rect x="127" y="231" width="30",height="30", fill="rgb(75,36,29)"/><rect x="33" y="123" width="30",height="30", fill="rgb(129,98,52)"/><rect x="82" y="207" width="30",height="30", fill="rgb(42,22,33)"/><rect x="6" y="182" width="30",height="30", fill="rgb(84,59,54)"/><rect x="7" y="79" width="30",height="30", fill="rgb(68,68,60)"/><rect x="55" y="221" width="30",height="30", fill="rgb(77,43,8)"/><rect x="66" y="238" width="30",height="30", fill="rgb(109,67,29)"/><rect x="49" y="29" width="30",height="30", fill="rgb(145,148,91)"/><rect x="87" y="130" width="30",height="30", fill="rgb(230,195,103)"/><rect x="10" y="9" width="30",height="30", fill="rgb(115,128,75)"/><rect x="51" y="265" width="30",height="30", fill="rgb(25,12,32)"/><rect x="26" y="74" width="30",height="30", fill="rgb(100,99,69)"/><rect x="38" y="107" width="30",height="30", fill="rgb(96,100,75)"/><rect x="4" y="23" width="30",height="30", fill="rgb(134,145,89)"/><rect x="132" y="232" width="30",height="30", fill="rgb(53,23,21)"/><rect x="158" y="209" width="30",height="30", fill="rgb(36,26,50)"/><rect x="138" y="43" width="30",height="30", fill="rgb(150,157,103)"/><rect x="10" y="40" width="30",height="30", fill="rgb(149,156,104)"/><rect x="47" y="169" width="30",height="30", fill="rgb(52,40,54)"/><rect x="97" y="37" width="30",height="30", fill="rgb(72,42,31)"/><rect x="118" y="109" width="30",height="30", fill="rgb(48,27,22)"/><rect x="136" y="62" width="30",height="30", fill="rgb(100,117,85)"/><rect x="2" y="116" width="30",height="30", fill="rgb(88,66,53)"/><rect x="103" y="90" width="30",height="30", fill="rgb(73,43,35)"/><rect x="46" y="32" width="30",height="30", fill="rgb(145,150,96)"/><rect x="23" y="128" width="30",height="30", fill="rgb(154,127,58)"/><rect x="87" y="13" width="30",height="30", fill="rgb(116,128,78)"/><rect x="132" y="93" width="30",height="30", fill="rgb(81,83,62)"/><rect x="63" y="14" width="30",height="30", fill="rgb(112,124,76)"/><rect x="177" y="173" width="30",height="30", fill="rgb(66,47,43)"/><rect x="28" y="103" width="30",height="30", fill="rgb(75,79,65)"/><rect x="50" y="35" width="30",height="30", fill="rgb(145,148,95)"/><rect x="141" y="242" width="30",height="30", fill="rgb(15,6,23)"/><rect x="15" y="170" width="30",height="30", fill="rgb(146,109,67)"/><rect x="37" y="243" width="30",height="30", fill="rgb(34,17,36)"/><rect x="85" y="78" width="30",height="30", fill="rgb(130,83,37)"/><rect x="129" y="198" width="30",height="30", fill="rgb(32,18,35)"/><rect x="70" y="109" width="30",height="30", fill="rgb(53,22,27)"/><rect x="21" y="112" width="30",height="30", fill="rgb(93,98,68)"/><rect x="140" y="152" width="30",height="30", fill="rgb(42,31,37)"/><rect x="6" y="20" width="30",height="30", fill="rgb(123,133,81)"/><rect x="114" y="127" width="30",height="30", fill="rgb(109,60,28)"/><rect x="171" y="141" width="30",height="30", fill="rgb(112,70,58)"/><rect x="36" y="15" width="30",height="30", fill="rgb(119,131,85)"/><rect x="66" y="240" width="30",height="30", fill="rgb(91,51,39)"/><rect x="146" y="53" width="30",height="30", fill="rgb(128,138,85)"/><rect x="24" y="77" width="30",height="30", fill="rgb(96,92,65)"/><rect x="36" y="263" width="30",height="30", fill="rgb(28,11,30)"/><rect x="177" y="261" width="30",height="30", fill="rgb(26,8,30)"/><rect x="64" y="89" width="30",height="30", fill="rgb(50,18,23)"/><rect x="133" y="117" width="30",height="30", fill="rgb(45,28,38)"/><rect x="74" y="11" width="30",height="30", fill="rgb(109,116,62)"/><rect x="30" y="208" width="30",height="30", fill="rgb(102,61,41)"/><rect x="11" y="201" width="30",height="30", fill="rgb(47,35,55)"/><rect x="71" y="99" width="30",height="30", fill="rgb(47,17,27)"/><rect x="135" y="61" width="30",height="30", fill="rgb(87,102,69)"/><rect x="31" y="262" width="30",height="30", fill="rgb(23,9,32)"/><rect x="31" y="153" width="30",height="30", fill="rgb(158,110,70)"/><rect x="85" y="154" width="30",height="30", fill="rgb(117,81,55)"/><rect x="9" y="29" width="30",height="30", fill="rgb(136,146,96)"/><rect x="117" y="85" width="30",height="30", fill="rgb(37,25,35)"/><rect x="117" y="224" width="30",height="30", fill="rgb(119,67,30)"/><rect x="139" y="135" width="30",height="30", fill="rgb(60,35,28)"/><rect x="7" y="58" width="30",height="30", fill="rgb(111,119,80)"/><rect x="61" y="7" width="30",height="30", fill="rgb(105,121,72)"/><rect x="17" y="63" width="30",height="30", fill="rgb(108,114,70)"/><rect x="97" y="78" width="30",height="30", fill="rgb(160,118,58)"/><rect x="32" y="96" width="30",height="30", fill="rgb(70,68,45)"/><rect x="55" y="130" width="30",height="30", fill="rgb(32,19,39)"/><rect x="36" y="225" width="30",height="30", fill="rgb(24,15,46)"/><rect x="138" y="145" width="30",height="30", fill="rgb(23,16,34)"/><rect x="90" y="0" width="30",height="30", fill="rgb(83,106,64)"/><rect x="110" y="135" width="30",height="30", fill="rgb(133,83,12)"/><rect x="28" y="249" width="30",height="30", fill="rgb(30,18,40)"/><rect x="13" y="126" width="30",height="30", fill="rgb(124,81,46)"/><rect x="129" y="262" width="30",height="30", fill="rgb(6,7,25)"/><rect x="11" y="93" width="30",height="30", fill="rgb(79,76,59)"/><rect x="64" y="126" width="30",height="30", fill="rgb(108,55,41)"/><rect x="110" y="272" width="30",height="30", fill="rgb(20,8,32)"/><rect x="170" y="237" width="30",height="30", fill="rgb(36,23,40)"/><rect x="121" y="38" width="30",height="30", fill="rgb(143,149,89)"/><rect x="183" y="166" width="30",height="30", fill="rgb(95,72,78)"/><rect x="46" y="194" width="30",height="30", fill="rgb(53,33,45)"/><rect x="27" y="144" width="30",height="30", fill="rgb(145,103,61)"/><rect x="174" y="198" width="30",height="30", fill="rgb(49,40,61)"/><rect x="25" y="92" width="30",height="30", fill="rgb(86,78,59)"/><rect x="171" y="253" width="30",height="30", fill="rgb(30,17,37)"/><rect x="176" y="237" width="30",height="30", fill="rgb(41,28,38)"/><rect x="40" y="153" width="30",height="30", fill="rgb(52,42,51)"/><rect x="69" y="11" width="30",height="30", fill="rgb(113,123,71)"/><rect x="88" y="216" width="30",height="30", fill="rgb(203,142,51)"/><rect x="175" y="115" width="30",height="30", fill="rgb(84,76,57)"/><rect x="112" y="225" width="30",height="30", fill="rgb(120,70,43)"/><rect x="57" y="11" width="30",height="30", fill="rgb(109,119,69)"/><rect x="103" y="61" width="30",height="30", fill="rgb(114,79,39)"/><rect x="115" y="153" width="30",height="30", fill="rgb(38,30,43)"/><rect x="33" y="107" width="30",height="30", fill="rgb(95,99,74)"/><rect x="153" y="212" width="30",height="30", fill="rgb(19,9,33)"/><rect x="155" y="257" width="30",height="30", fill="rgb(9,6,25)"/><rect x="73" y="165" width="30",height="30", fill="rgb(68,50,38)"/><rect x="152" y="165" width="30",height="30", fill="rgb(29,26,43)"/><rect x="25" y="6" width="30",height="30", fill="rgb(99,116,71)"/><rect x="92" y="112" width="30",height="30", fill="rgb(181,141,69)"/><rect x="163" y="140" width="30",height="30", fill="rgb(94,50,51)"/><rect x="38" y="13" width="30",height="30", fill="rgb(110,122,74)"/><rect x="8" y="241" width="30",height="30", fill="rgb(23,11,35)"/><rect x="9" y="245" width="30",height="30", fill="rgb(29,17,41)"/><rect x="13" y="22" width="30",height="30", fill="rgb(123,134,78)"/><rect x="78" y="107" width="30",height="30", fill="rgb(53,34,28)"/><rect x="168" y="214" width="30",height="30", fill="rgb(50,41,62)"/><rect x="163" y="247" width="30",height="30", fill="rgb(31,16,35)"/><rect x="157" y="31" width="30",height="30", fill="rgb(144,148,89)"/><rect x="53" y="62" width="30",height="30", fill="rgb(168,169,112)"/><rect x="96" y="232" width="30",height="30", fill="rgb(96,46,23)"/><rect x="82" y="168" width="30",height="30", fill="rgb(78,58,47)"/><rect x="132" y="96" width="30",height="30", fill="rgb(77,83,69)"/><rect x="37" y="155" width="30",height="30", fill="rgb(48,38,49)"/><rect x="108" y="91" width="30",height="30", fill="rgb(42,21,30)"/><rect x="122" y="269" width="30",height="30", fill="rgb(9,7,28)"/><rect x="2" y="222" width="30",height="30", fill="rgb(81,58,64)"/><rect x="28" y="177" width="30",height="30", fill="rgb(48,40,55)"/><rect x="18" y="117" width="30",height="30", fill="rgb(90,84,60)"/><rect x="0" y="112" width="30",height="30", fill="rgb(69,58,54)"/><rect x="66" y="218" width="30",height="30", fill="rgb(180,128,53)"/><rect x="157" y="47" width="30",height="30", fill="rgb(165,168,115)"/><rect x="114" y="77" width="30",height="30", fill="rgb(47,27,38)"/><rect x="64" y="93" width="30",height="30", fill="rgb(77,37,38)"/><rect x="121" y="86" width="30",height="30", fill="rgb(32,22,33)"/><rect x="26" y="7" width="30",height="30", fill="rgb(100,113,67)"/><rect x="40" y="67" width="30",height="30", fill="rgb(101,103,63)"/><rect x="134" y="150" width="30",height="30", fill="rgb(42,32,33)"/><rect x="35" y="220" width="30",height="30", fill="rgb(44,27,43)"/><rect x="16" y="188" width="30",height="30", fill="rgb(52,39,49)"/><rect x="39" y="70" width="30",height="30", fill="rgb(85,88,59)"/><rect x="72" y="76" width="30",height="30", fill="rgb(199,155,80)"/><rect x="56" y="172" width="30",height="30", fill="rgb(48,37,43)"/><rect x="183" y="123" width="30",height="30", fill="rgb(89,78,58)"/><rect x="40" y="111" width="30",height="30", fill="rgb(46,36,9)"/><rect x="20" y="94" width="30",height="30", fill="rgb(88,81,62)"/><rect x="17" y="156" width="30",height="30", fill="rgb(124,62,37)"/><rect x="138" y="174" width="30",height="30", fill="rgb(35,21,36)"/><rect x="4" y="67" width="30",height="30", fill="rgb(88,89,71)"/><rect x="18" y="141" width="30",height="30", fill="rgb(118,79,38)"/><rect x="152" y="137" width="30",height="30", fill="rgb(45,25,52)"/><rect x="1" y="272" width="30",height="30", fill="rgb(32,27,50)"/><rect x="18" y="234" width="30",height="30", fill="rgb(33,20,40)"/><rect x="12" y="15" width="30",height="30", fill="rgb(116,128,78)"/><rect x="108" y="131" width="30",height="30", fill="rgb(188,145,67)"/><rect x="153" y="69" width="30",height="30", fill="rgb(147,154,100)"/><rect x="105" y="257" width="30",height="30", fill="rgb(7,8,26)"/><rect x="114" y="143" width="30",height="30", fill="rgb(73,44,26)"/><rect x="123" y="15" width="30",height="30", fill="rgb(125,135,85)"/><rect x="95" y="153" width="30",height="30", fill="rgb(116,85,56)"/><rect x="172" y="177" width="30",height="30", fill="rgb(58,44,59)"/><rect x="106" y="173" width="30",height="30", fill="rgb(33,22,39)"/><rect x="39" y="56" width="30",height="30", fill="rgb(165,169,118)"/><rect x="140" y="161" width="30",height="30", fill="rgb(95,66,48)"/><rect x="139" y="221" width="30",height="30", fill="rgb(45,24,31)"/><rect x="176" y="216" width="30",height="30", fill="rgb(54,41,61)"/><rect x="165" y="212" width="30",height="30", fill="rgb(38,29,50)"/><rect x="86" y="22" width="30",height="30", fill="rgb(130,136,92)"/><rect x="120" y="72" width="30",height="30", fill="rgb(41,29,41)"/><rect x="144" y="105" width="30",height="30", fill="rgb(99,104,72)"/><rect x="104" y="55" width="30",height="30", fill="rgb(110,76,39)"/><rect x="97" y="50" width="30",height="30", fill="rgb(160,116,45)"/><rect x="94" y="108" width="30",height="30", fill="rgb(144,106,44)"/><rect x="63" y="222" width="30",height="30", fill="rgb(162,113,54)"/><rect x="21" y="78" width="30",height="30", fill="rgb(83,85,61)"/><rect x="77" y="177" width="30",height="30", fill="rgb(66,50,50)"/><rect x="93" y="194" width="30",height="30", fill="rgb(33,21,41)"/><rect x="102" y="184" width="30",height="30", fill="rgb(34,26,41)"/><rect x="154" y="9" width="30",height="30", fill="rgb(106,122,77)"/><rect x="156" y="110" width="30",height="30", fill="rgb(146,131,74)"/><rect x="160" y="208" width="30",height="30", fill="rgb(45,36,57)"/><rect x="117" y="96" width="30",height="30", fill="rgb(42,30,40)"/><rect x="122" y="262" width="30",height="30", fill="rgb(8,6,27)"/><rect x="178" y="39" width="30",height="30", fill="rgb(152,159,105)"/><rect x="145" y="273" width="30",height="30", fill="rgb(8,6,28)"/><rect x="166" y="272" width="30",height="30", fill="rgb(12,7,29)"/><rect x="8" y="107" width="30",height="30", fill="rgb(64,66,53)"/><rect x="125" y="143" width="30",height="30", fill="rgb(24,15,20)"/><rect x="30" y="20" width="30",height="30", fill="rgb(127,136,89)"/><rect x="19" y="215" width="30",height="30", fill="rgb(26,18,41)"/><rect x="4" y="129" width="30",height="30", fill="rgb(108,73,53)"/><rect x="93" y="268" width="30",height="30", fill="rgb(13,8,30)"/><rect x="164" y="158" width="30",height="30", fill="rgb(63,39,39)"/><rect x="118" y="110" width="30",height="30", fill="rgb(53,33,26)"/><rect x="182" y="191" width="30",height="30", fill="rgb(89,68,65)"/><rect x="153" y="60" width="30",height="30", fill="rgb(167,167,97)"/><rect x="76" y="249" width="30",height="30", fill="rgb(55,33,36)"/><rect x="113" y="167" width="30",height="30", fill="rgb(37,31,41)"/><rect x="36" y="53" width="30",height="30", fill="rgb(169,172,117)"/><rect x="148" y="74" width="30",height="30", fill="rgb(126,143,111)"/><rect x="45" y="269" width="30",height="30", fill="rgb(26,13,33)"/><rect x="82" y="83" width="30",height="30", fill="rgb(145,102,57)"/><rect x="6" y="77" width="30",height="30", fill="rgb(69,67,55)"/><rect x="23" y="262" width="30",height="30", fill="rgb(29,17,41)"/><rect x="83" y="94" width="30",height="30", fill="rgb(198,150,78)"/><rect x="100" y="271" width="30",height="30", fill="rgb(16,8,29)"/><rect x="142" y="103" width="30",height="30", fill="rgb(75,85,58)"/><rect x="118" y="105" width="30",height="30", fill="rgb(39,19,28)"/><rect x="31" y="12" width="30",height="30", fill="rgb(112,124,74)"/><rect x="39" y="270" width="30",height="30", fill="rgb(34,15,34)"/><rect x="124" y="227" width="30",height="30", fill="rgb(86,36,13)"/><rect x="109" y="241" width="30",height="30", fill="rgb(35,17,29)"/><rect x="70" y="108" width="30",height="30", fill="rgb(55,24,29)"/><rect x="84" y="14" width="30",height="30", fill="rgb(118,130,80)"/><rect x="120" y="140" width="30",height="30", fill="rgb(81,54,27)"/><rect x="140" y="4" width="30",height="30", fill="rgb(87,110,66)"/><rect x="15" y="204" width="30",height="30", fill="rgb(47,36,53)"/><rect x="150" y="34" width="30",height="30", fill="rgb(144,148,97)"/><rect x="27" y="54" width="30",height="30", fill="rgb(164,164,102)"/><rect x="165" y="83" width="30",height="30", fill="rgb(89,99,74)"/><rect x="100" y="14" width="30",height="30", fill="rgb(113,127,78)"/><rect x="144" y="116" width="30",height="30", fill="rgb(93,89,51)"/><rect x="183" y="133" width="30",height="30", fill="rgb(130,106,78)"/><rect x="41" y="237" width="30",height="30", fill="rgb(69,39,41)"/><rect x="179" y="73" width="30",height="30", fill="rgb(127,135,98)"/><rect x="4" y="52" width="30",height="30", fill="rgb(138,145,94)"/><rect x="41" y="137" width="30",height="30", fill="rgb(139,108,64)"/><rect x="165" y="14" width="30",height="30", fill="rgb(119,133,84)"/><rect x="59" y="4" width="30",height="30", fill="rgb(98,121,77)"/><rect x="80" y="113" width="30",height="30", fill="rgb(151,113,51)"/><rect x="10" y="45" width="30",height="30", fill="rgb(150,155,101)"/><rect x="34" y="64" width="30",height="30", fill="rgb(101,107,69)"/><rect x="132" y="220" width="30",height="30", fill="rgb(79,36,19)"/><rect x="49" y="22" width="30",height="30", fill="rgb(129,136,82)"/><rect x="114" y="97" width="30",height="30", fill="rgb(40,19,24)"/><rect x="103" y="250" width="30",height="30", fill="rgb(31,16,35)"/><rect x="91" y="179" width="30",height="30", fill="rgb(38,23,30)"/><rect x="64" y="50" width="30",height="30", fill="rgb(65,33,20)"/><rect x="34" y="151" width="30",height="30", fill="rgb(75,41,29)"/><rect x="173" y="101" width="30",height="30", fill="rgb(72,83,69)"/><rect x="65" y="149" width="30",height="30", fill="rgb(96,59,41)"/><rect x="5" y="130" width="30",height="30", fill="rgb(105,70,50)"/><rect x="127" y="269" width="30",height="30", fill="rgb(5,6,26)"/><rect x="51" y="31" width="30",height="30", fill="rgb(145,148,91)"/><rect x="93" y="150" width="30",height="30", fill="rgb(132,96,46)"/><rect x="70" y="167" width="30",height="30", fill="rgb(59,41,37)"/><rect x="30" y="40" width="30",height="30", fill="rgb(149,152,99)"/><rect x="161" y="271" width="30",height="30", fill="rgb(15,8,24)"/><rect x="48" y="46" width="30",height="30", fill="rgb(168,168,114)"/><rect x="133" y="190" width="30",height="30", fill="rgb(40,20,32)"/><rect x="110" y="87" width="30",height="30", fill="rgb(43,22,29)"/><rect x="108" y="137" width="30",height="30", fill="rgb(172,126,48)"/><rect x="41" y="108" width="30",height="30", fill="rgb(109,109,83)"/><rect x="124" y="76" width="30",height="30", fill="rgb(33,24,29)"/><rect x="35" y="223" width="30",height="30", fill="rgb(27,13,38)"/><rect x="88" y="233" width="30",height="30", fill="rgb(98,41,21)"/><rect x="120" y="151" width="30",height="30", fill="rgb(43,29,28)"/></svg>