<svg xmlns="http://www.w3.org/2000/svg" width="184" height="274" version="1.1"><rect x="148" y="11" width="30" height="30" fill="rgb(110,122,74)" /><rect x="28" y="184" width="30" height="30" fill="rgb(63,40,46)" /><rect x="40" y="27" width="30" height="30" fill="rgb(134,141,87)" /><rect x="14" y="129" width="30" height="30" fill="rgb(100,69,38)" /><rect x="129" y="28" width="30" height="30" fill="rgb(127,135,84)" /><rect x="125" y="234" width="30" height="30" fill="rgb(57,25,28)" /><rect x="118" y="41" width="30" height="30" fill="rgb(19,11,0)" /><rect x="62" y="166" width="30" height="30" fill="rgb(62,47,44)" /><rect x="151" y="240" width="30" height="30" fill="rgb(16,8,29)" /><rect x="51" y="92" width="30" height="30" fill="rgb(95,95,71)" /><rect x="153" y="126" width="30" height="30" fill="rgb(124,103,46)" /><rect x="109" y="161" width="30" height="30" fill="rgb(37,27,36)" /><rect x="153" y="92" width="30" height="30" fill="rgb(70,83,65)" /><rect x="168" y="186" width="30" height="30" fill="rgb(46,39,57)" /><rect x="169" y="161" width="30" height="30" fill="rgb(63,40,58)" /><rect x="25" y="31" width="30" height="30" fill="rgb(141,146,92)" /><rect x="58" y="113" width="30" height="30" fill="rgb(66,51,54)" /><rect x="5" y="265" width="30" height="30" fill="rgb(22,9,35)" /><rect x="148" y="160" width="30" height="30" fill="rgb(39,29,40)" /><rect x="120" y="23" width="30" height="30" fill="rgb(128,140,90)" /><rect x="110" y="87" width="30" height="30" fill="rgb(43,22,29)" /><rect x="57" y="170" width="30" height="30" fill="rgb(47,35,39)" /><rect x="134" y="250" width="30" height="30" fill="rgb(11,8,29)" /><rect x="17" y="234" width="30" height="30" fill="rgb(33,20,40)" /><rect x="157" y="138" width="30" height="30" fill="rgb(56,30,29)" /><rect x="157" y="118" width="30" height="30" fill="rgb(139,119,60)" /><rect x="134" y="176" width="30" height="30" fill="rgb(28,11,29)" /><rect x="162" y="93" width="30" height="30" fill="rgb(75,87,65)" /><rect x="75" y="185" width="30" height="30" fill="rgb(49,35,35)" /><rect x="53" y="187" width="30" height="30" fill="rgb(39,21,35)" /><rect x="169" y="175" width="30" height="30" fill="rgb(51,40,56)" /><rect x="52" y="83" width="30" height="30" fill="rgb(72,69,52)" /><rect x="133" y="211" width="30" height="30" fill="rgb(27,14,44)" /><rect x="17" y="200" width="30" height="30" fill="rgb(32,13,35)" /><rect x="139" y="26" width="30" height="30" fill="rgb(128,136,85)" /><rect x="41" y="151" width="30" height="30" fill="rgb(60,47,57)" /><rect x="52" y="88" width="30" height="30" fill="rgb(87,85,64)" /><rect x="156" y="208" width="30" height="30" fill="rgb(27,19,42)" /><rect x="89" y="31" width="30" height="30" fill="rgb(89,51,30)" /><rect x="116" y="168" width="30" height="30" fill="rgb(40,33,40)" /><rect x="80" y="123" width="30" height="30" fill="rgb(234,194,106)" /><rect x="128" y="271" width="30" height="30" fill="rgb(5,6,26)" /><rect x="34" y="191" width="30" height="30" fill="rgb(53,33,44)" /><rect x="182" y="109" width="30" height="30" fill="rgb(110,98,76)" /><rect x="159" y="166" width="30" height="30" fill="rgb(55,44,50)" /><rect x="69" y="50" width="30" height="30" fill="rgb(177,143,56)" /><rect x="113" y="176" width="30" height="30" fill="rgb(25,21,46)" /><rect x="48" y="59" width="30" height="30" fill="rgb(174,172,124)" /><rect x="23" y="169" width="30" height="30" fill="rgb(154,116,53)" /><rect x="40" y="219" width="30" height="30" fill="rgb(57,38,44)" /><rect x="50" y="3" width="30" height="30" fill="rgb(88,113,71)" /><rect x="61" y="255" width="30" height="30" fill="rgb(37,16,25)" /><rect x="105" y="118" width="30" height="30" fill="rgb(204,168,74)" /><rect x="88" y="100" width="30" height="30" fill="rgb(79,39,27)" /><rect x="97" y="261" width="30" height="30" fill="rgb(8,7,25)" /><rect x="161" y="180" width="30" height="30" fill="rgb(47,36,52)" /><rect x="176" y="103" width="30" height="30" fill="rgb(95,97,86)" /><rect x="126" y="66" width="30" height="30" fill="rgb(81,81,71)" /><rect x="114" y="107" width="30" height="30" fill="rgb(60,29,26)" /><rect x="16" y="87" width="30" height="30" fill="rgb(77,81,58)" /><rect x="104" y="165" width="30" height="30" fill="rgb(36,25,39)" /><rect x="121" y="128" width="30" height="30" fill="rgb(68,44,34)" /><rect x="96" y="45" width="30" height="30" fill="rgb(147,103,42)" /><rect x="71" y="19" width="30" height="30" fill="rgb(124,126,76)" /><rect x="51" y="214" width="30" height="30" fill="rgb(153,113,64)" /><rect x="123" y="105" width="30" height="30" fill="rgb(38,23,30)" /><rect x="174" y="111" width="30" height="30" fill="rgb(92,78,49)" /><rect x="169" y="69" width="30" height="30" fill="rgb(153,152,88)" /><rect x="152" y="55" width="30" height="30" fill="rgb(169,169,109)" /><rect x="145" y="248" width="30" height="30" fill="rgb(8,7,25)" /><rect x="62" y="270" width="30" height="30" fill="rgb(31,11,36)" /><rect x="26" y="273" width="30" height="30" fill="rgb(33,29,56)" /><rect x="117" y="260" width="30" height="30" fill="rgb(10,6,23)" /><rect x="62" y="53" width="30" height="30" fill="rgb(75,45,11)" /><rect x="66" y="220" width="30" height="30" fill="rgb(178,123,58)" /><rect x="8" y="273" width="30" height="30" fill="rgb(30,25,57)" /><rect x="137" y="108" width="30" height="30" fill="rgb(70,72,50)" /><rect x="28" y="108" width="30" height="30" fill="rgb(90,86,57)" /><rect x="142" y="223" width="30" height="30" fill="rgb(33,19,18)" /><rect x="120" y="170" width="30" height="30" fill="rgb(69,55,52)" /><rect x="178" y="132" width="30" height="30" fill="rgb(152,125,82)" /><rect x="65" y="173" width="30" height="30" fill="rgb(40,26,41)" /><rect x="84" y="60" width="30" height="30" fill="rgb(139,93,33)" /><rect x="150" y="110" width="30" height="30" fill="rgb(74,78,51)" /><rect x="15" y="113" width="30" height="30" fill="rgb(77,95,81)" /><rect x="134" y="11" width="30" height="30" fill="rgb(109,121,71)" /><rect x="156" y="172" width="30" height="30" fill="rgb(38,29,48)" /><rect x="38" y="55" width="30" height="30" fill="rgb(170,172,122)" /><rect x="101" y="162" width="30" height="30" fill="rgb(39,29,37)" /><rect x="35" y="19" width="30" height="30" fill="rgb(127,137,85)" /><rect x="97" y="233" width="30" height="30" fill="rgb(96,47,30)" /><rect x="131" y="252" width="30" height="30" fill="rgb(10,7,28)" /><rect x="21" y="239" width="30" height="30" fill="rgb(34,21,39)" /><rect x="25" y="221" width="30" height="30" fill="rgb(32,20,42)" /><rect x="57" y="144" width="30" height="30" fill="rgb(83,52,34)" /><rect x="49" y="217" width="30" height="30" fill="rgb(94,56,45)" /><rect x="31" y="261" width="30" height="30" fill="rgb(21,7,30)" /><rect x="38" y="82" width="30" height="30" fill="rgb(84,84,58)" /><rect x="140" y="147" width="30" height="30" fill="rgb(26,22,39)" /><rect x="76" y="111" width="30" height="30" fill="rgb(60,37,21)" /><rect x="109" y="6" width="30" height="30" fill="rgb(97,119,70)" /><rect x="42" y="66" width="30" height="30" fill="rgb(104,107,60)" /><rect x="107" y="264" width="30" height="30" fill="rgb(7,4,23)" /><rect x="166" y="108" width="30" height="30" fill="rgb(117,105,67)" /><rect x="99" y="188" width="30" height="30" fill="rgb(35,24,38)" /><rect x="166" y="56" width="30" height="30" fill="rgb(165,160,96)" /><rect x="178" y="70" width="30" height="30" fill="rgb(129,138,93)" /><rect x="120" y="141" width="30" height="30" fill="rgb(53,26,7)" /><rect x="143" y="272" width="30" height="30" fill="rgb(5,2,23)" /><rect x="52" y="83" width="30" height="30" fill="rgb(72,69,52)" /><rect x="171" y="3" width="30" height="30" fill="rgb(81,112,78)" /><rect x="142" y="217" width="30" height="30" fill="rgb(23,13,47)" /><rect x="70" y="170" width="30" height="30" fill="rgb(55,41,40)" /><rect x="171" y="225" width="30" height="30" fill="rgb(30,22,43)" /><rect x="87" y="110" width="30" height="30" fill="rgb(177,139,64)" /><rect x="103" y="40" width="30" height="30" fill="rgb(54,33,30)" /><rect x="100" y="157" width="30" height="30" fill="rgb(55,35,34)" /><rect x="106" y="259" width="30" height="30" fill="rgb(9,8,26)" /><rect x="81" y="70" width="30" height="30" fill="rgb(201,163,80)" /><rect x="6" y="241" width="30" height="30" fill="rgb(35,23,47)" /><rect x="166" y="8" width="30" height="30" fill="rgb(109,126,81)" /><rect x="34" y="63" width="30" height="30" fill="rgb(97,102,62)" /><rect x="173" y="41" width="30" height="30" fill="rgb(153,154,97)" /><rect x="145" y="24" width="30" height="30" fill="rgb(127,139,89)" /><rect x="23" y="75" width="30" height="30" fill="rgb(97,96,66)" /><rect x="103" y="120" width="30" height="30" fill="rgb(214,178,81)" /><rect x="64" y="89" width="30" height="30" fill="rgb(50,18,23)" /><rect x="29" y="263" width="30" height="30" fill="rgb(25,13,37)" /><rect x="113" y="240" width="30" height="30" fill="rgb(34,18,31)" /><rect x="171" y="230" width="30" height="30" fill="rgb(31,22,41)" /><rect x="76" y="21" width="30" height="30" fill="rgb(129,133,82)" /><rect x="21" y="262" width="30" height="30" fill="rgb(28,16,40)" /><rect x="152" y="223" width="30" height="30" fill="rgb(27,17,41)" /><rect x="43" y="115" width="30" height="30" fill="rgb(80,64,48)" /><rect x="61" y="65" width="30" height="30" fill="rgb(82,43,36)" /><rect x="116" y="64" width="30" height="30" fill="rgb(31,14,33)" /><rect x="131" y="89" width="30" height="30" fill="rgb(79,80,62)" /><rect x="35" y="259" width="30" height="30" fill="rgb(25,12,32)" /><rect x="133" y="96" width="30" height="30" fill="rgb(70,79,62)" /><rect x="34" y="239" width="30" height="30" fill="rgb(39,17,40)" /><rect x="168" y="146" width="30" height="30" fill="rgb(130,71,53)" /><rect x="67" y="87" width="30" height="30" fill="rgb(53,22,17)" /><rect x="133" y="222" width="30" height="30" fill="rgb(91,43,31)" /><rect x="177" y="235" width="30" height="30" fill="rgb(41,21,30)" /><rect x="86" y="177" width="30" height="30" fill="rgb(64,46,34)" /><rect x="122" y="242" width="30" height="30" fill="rgb(22,14,29)" /><rect x="52" y="207" width="30" height="30" fill="rgb(186,150,74)" /><rect x="59" y="136" width="30" height="30" fill="rgb(97,58,29)" /><rect x="52" y="268" width="30" height="30" fill="rgb(19,10,31)" /><rect x="126" y="12" width="30" height="30" fill="rgb(115,123,74)" /><rect x="11" y="270" width="30" height="30" fill="rgb(23,10,36)" /><rect x="110" y="249" width="30" height="30" fill="rgb(21,12,29)" /><rect x="33" y="7" width="30" height="30" fill="rgb(107,123,74)" /><rect x="104" y="118" width="30" height="30" fill="rgb(201,165,71)" /><rect x="41" y="144" width="30" height="30" fill="rgb(52,32,44)" /><rect x="179" y="85" width="30" height="30" fill="rgb(98,101,82)" /><rect x="139" y="100" width="30" height="30" fill="rgb(71,85,60)" /><rect x="39" y="247" width="30" height="30" fill="rgb(48,30,54)" /><rect x="4" y="148" width="30" height="30" fill="rgb(91,57,58)" /><rect x="76" y="99" width="30" height="30" fill="rgb(48,27,26)" /><rect x="50" y="41" width="30" height="30" fill="rgb(151,154,99)" /><rect x="171" y="150" width="30" height="30" fill="rgb(100,52,48)" /><rect x="115" y="116" width="30" height="30" fill="rgb(68,27,9)" /><rect x="69" y="187" width="30" height="30" fill="rgb(36,24,34)" /><rect x="37" y="265" width="30" height="30" fill="rgb(34,15,34)" /><rect x="7" y="74" width="30" height="30" fill="rgb(57,58,42)" /><rect x="153" y="192" width="30" height="30" fill="rgb(31,19,39)" /><rect x="97" y="236" width="30" height="30" fill="rgb(154,94,66)" /><rect x="145" y="10" width="30" height="30" fill="rgb(112,122,72)" /><rect x="124" y="263" width="30" height="30" fill="rgb(8,6,27)" /><rect x="44" y="124" width="30" height="30" fill="rgb(88,63,41)" /><rect x="11" y="195" width="30" height="30" fill="rgb(51,37,50)" /><rect x="163" y="3" width="30" height="30" fill="rgb(78,109,75)" /><rect x="165" y="250" width="30" height="30" fill="rgb(36,19,35)" /><rect x="161" y="9" width="30" height="30" fill="rgb(109,125,78)" /><rect x="78" y="200" width="30" height="30" fill="rgb(29,16,42)" /><rect x="49" y="136" width="30" height="30" fill="rgb(47,30,48)" /><rect x="20" y="77" width="30" height="30" fill="rgb(85,87,65)" /><rect x="37" y="71" width="30" height="30" fill="rgb(72,76,51)" /><rect x="34" y="90" width="30" height="30" fill="rgb(78,73,54)" /><rect x="179" y="159" width="30" height="30" fill="rgb(91,60,66)" /><rect x="132" y="267" width="30" height="30" fill="rgb(7,6,24)" /><rect x="97" y="180" width="30" height="30" fill="rgb(36,25,39)" /><rect x="0" y="82" width="30" height="30" fill="rgb(60,56,45)" /><rect x="159" y="7" width="30" height="30" fill="rgb(104,125,82)" /><rect x="33" y="180" width="30" height="30" fill="rgb(64,46,46)" /><rect x="143" y="235" width="30" height="30" fill="rgb(26,7,26)" /><rect x="24" y="7" width="30" height="30" fill="rgb(99,112,66)" /><rect x="40" y="124" width="30" height="30" fill="rgb(92,65,38)" /><rect x="50" y="109" width="30" height="30" fill="rgb(115,111,86)" /><rect x="96" y="166" width="30" height="30" fill="rgb(46,36,35)" /><rect x="47" y="75" width="30" height="30" fill="rgb(80,75,55)" /><rect x="110" y="33" width="30" height="30" fill="rgb(36,18,14)" /><rect x="169" y="186" width="30" height="30" fill="rgb(47,40,56)" /><rect x="170" y="201" width="30" height="30" fill="rgb(39,30,51)" /><rect x="74" y="69" width="30" height="30" fill="rgb(213,177,93)" /><rect x="84" y="169" width="30" height="30" fill="rgb(79,59,48)" /><rect x="125" y="155" width="30" height="30" fill="rgb(57,41,28)" /><rect x="68" y="159" width="30" height="30" fill="rgb(67,48,41)" /><rect x="111" y="91" width="30" height="30" fill="rgb(45,28,38)" /></svg>