<svg xmlns="http://www.w3.org/2000/svg" width="184" height="274" version="1.1"><ellipse cx="182" cy="103" rx="30" ry="30" transform="rotate(63,80,65)" fill="rgb(95,89,75)" /><ellipse cx="15" cy="115" rx="30" ry="30" transform="rotate(63,80,65)" fill="rgb(71,81,70)" /><ellipse cx="71" cy="204" rx="30" ry="30" transform="rotate(63,80,65)" fill="rgb(108,72,46)" /><ellipse cx="161" cy="250" rx="30" ry="30" transform="rotate(63,80,65)" fill="rgb(38,20,36)" /><ellipse cx="102" cy="53" rx="30" ry="30" transform="rotate(63,80,65)" fill="rgb(145,105,54)" /><ellipse cx="27" cy="216" rx="30" ry="30" transform="rotate(63,80,65)" fill="rgb(61,38,44)" /><ellipse cx="24" cy="61" rx="30" ry="30" transform="rotate(63,80,65)" fill="rgb(109,108,64)" /><ellipse cx="122" cy="9" rx="30" ry="30" transform="rotate(63,80,65)" fill="rgb(106,120,71)" /><ellipse cx="178" cy="108" rx="30" ry="30" transform="rotate(63,80,65)" fill="rgb(95,91,64)" /><ellipse cx="79" cy="22" rx="30" ry="30" transform="rotate(63,80,65)" fill="rgb(131,138,86)" /><ellipse cx="21" cy="243" rx="30" ry="30" transform="rotate(63,80,65)" fill="rgb(23,11,33)" /><ellipse cx="105" cy="156" rx="30" ry="30" transform="rotate(63,80,65)" fill="rgb(39,27,37)" /><ellipse cx="80" cy="97" rx="30" ry="30" transform="rotate(63,80,65)" fill="rgb(99,68,47)" /><ellipse cx="70" cy="57" rx="30" ry="30" transform="rotate(63,80,65)" fill="rgb(193,156,75)" /><ellipse cx="54" cy="159" rx="30" ry="30" transform="rotate(63,80,65)" fill="rgb(67,46,43)" /><ellipse cx="146" cy="71" rx="30" ry="30" transform="rotate(63,80,65)" fill="rgb(69,88,56)" /><ellipse cx="52" cy="248" rx="30" ry="30" transform="rotate(63,80,65)" fill="rgb(126,73,55)" /><ellipse cx="127" cy="7" rx="30" ry="30" transform="rotate(63,80,65)" fill="rgb(100,116,67)" /><ellipse cx="111" cy="70" rx="30" ry="30" transform="rotate(63,80,65)" fill="rgb(36,19,37)" /><ellipse cx="12" cy="270" rx="30" ry="30" transform="rotate(63,80,65)" fill="rgb(23,10,36)" /><ellipse cx="31" cy="180" rx="30" ry="30" transform="rotate(63,80,65)" fill="rgb(60,44,54)" /><ellipse cx="154" cy="168" rx="30" ry="30" transform="rotate(63,80,65)" fill="rgb(31,24,40)" /><ellipse cx="156" cy="166" rx="30" ry="30" transform="rotate(63,80,65)" fill="rgb(41,34,42)" /><ellipse cx="61" cy="186" rx="30" ry="30" transform="rotate(63,80,65)" fill="rgb(46,32,45)" /><ellipse cx="60" cy="145" rx="30" ry="30" transform="rotate(63,80,65)" fill="rgb(113,82,54)" /><ellipse cx="84" cy="79" rx="30" ry="30" transform="rotate(63,80,65)" fill="rgb(102,57,16)" /><ellipse cx="9" cy="17" rx="30" ry="30" transform="rotate(63,80,65)" fill="rgb(122,131,84)" /><ellipse cx="25" cy="94" rx="30" ry="30" transform="rotate(63,80,65)" fill="rgb(74,66,47)" /><ellipse cx="175" cy="119" rx="30" ry="30" transform="rotate(63,80,65)" fill="rgb(90,82,63)" /><ellipse cx="153" cy="70" rx="30" ry="30" transform="rotate(63,80,65)" fill="rgb(139,148,95)" /><ellipse cx="134" cy="14" rx="30" ry="30" transform="rotate(63,80,65)" fill="rgb(118,125,81)" /><ellipse cx="54" cy="60" rx="30" ry="30" transform="rotate(63,80,65)" fill="rgb(171,169,110)" /><ellipse cx="178" cy="270" rx="30" ry="30" transform="rotate(63,80,65)" fill="rgb(18,10,33)" /><ellipse cx="46" cy="231" rx="30" ry="30" transform="rotate(63,80,65)" fill="rgb(122,73,32)" /><ellipse cx="154" cy="244" rx="30" ry="30" transform="rotate(63,80,65)" fill="rgb(18,9,30)" /><ellipse cx="142" cy="163" rx="30" ry="30" transform="rotate(63,80,65)" fill="rgb(67,41,40)" /><ellipse cx="45" cy="208" rx="30" ry="30" transform="rotate(63,80,65)" fill="rgb(92,49,32)" /><ellipse cx="11" cy="201" rx="30" ry="30" transform="rotate(63,80,65)" fill="rgb(47,35,55)" /><ellipse cx="55" cy="254" rx="30" ry="30" transform="rotate(63,80,65)" fill="rgb(50,15,22)" /><ellipse cx="37" cy="28" rx="30" ry="30" transform="rotate(63,80,65)" fill="rgb(135,142,88)" /><ellipse cx="105" cy="45" rx="30" ry="30" transform="rotate(63,80,65)" fill="rgb(52,31,26)" /><ellipse cx="57" cy="28" rx="30" ry="30" transform="rotate(63,80,65)" fill="rgb(136,139,82)" /><ellipse cx="172" cy="128" rx="30" ry="30" transform="rotate(63,80,65)" fill="rgb(155,138,82)" /><ellipse cx="90" cy="193" rx="30" ry="30" transform="rotate(63,80,65)" fill="rgb(34,23,40)" /><ellipse cx="69" cy="191" rx="30" ry="30" transform="rotate(63,80,65)" fill="rgb(33,21,33)" /><ellipse cx="0" cy="228" rx="30" ry="30" transform="rotate(63,80,65)" fill="rgb(54,39,58)" /><ellipse cx="130" cy="42" rx="30" ry="30" transform="rotate(63,80,65)" fill="rgb(142,154,104)" /><ellipse cx="39" cy="220" rx="30" ry="30" transform="rotate(63,80,65)" fill="rgb(54,36,48)" /><ellipse cx="81" cy="234" rx="30" ry="30" transform="rotate(63,80,65)" fill="rgb(161,113,51)" /><ellipse cx="54" cy="77" rx="30" ry="30" transform="rotate(63,80,65)" fill="rgb(66,59,51)" /><ellipse cx="174" cy="229" rx="30" ry="30" transform="rotate(63,80,65)" fill="rgb(40,31,50)" /><ellipse cx="71" cy="73" rx="30" ry="30" transform="rotate(63,80,65)" fill="rgb(209,164,83)" /><ellipse cx="0" cy="74" rx="30" ry="30" transform="rotate(63,80,65)" fill="rgb(70,65,46)" /><ellipse cx="84" cy="184" rx="30" ry="30" transform="rotate(63,80,65)" fill="rgb(56,36,37)" /><ellipse cx="172" cy="249" rx="30" ry="30" transform="rotate(63,80,65)" fill="rgb(35,20,39)" /><ellipse cx="10" cy="0" rx="30" ry="30" transform="rotate(63,80,65)" fill="rgb(72,102,66)" /><ellipse cx="65" cy="79" rx="30" ry="30" transform="rotate(63,80,65)" fill="rgb(52,10,30)" /><ellipse cx="163" cy="106" rx="30" ry="30" transform="rotate(63,80,65)" fill="rgb(119,113,77)" /><ellipse cx="29" cy="61" rx="30" ry="30" transform="rotate(63,80,65)" fill="rgb(114,111,68)" /><ellipse cx="177" cy="269" rx="30" ry="30" transform="rotate(63,80,65)" fill="rgb(20,12,35)" /><ellipse cx="106" cy="190" rx="30" ry="30" transform="rotate(63,80,65)" fill="rgb(29,22,38)" /><ellipse cx="144" cy="17" rx="30" ry="30" transform="rotate(63,80,65)" fill="rgb(123,131,84)" /><ellipse cx="150" cy="116" rx="30" ry="30" transform="rotate(63,80,65)" fill="rgb(117,114,73)" /><ellipse cx="136" cy="145" rx="30" ry="30" transform="rotate(63,80,65)" fill="rgb(35,24,40)" /><ellipse cx="148" cy="4" rx="30" ry="30" transform="rotate(63,80,65)" fill="rgb(90,116,77)" /><ellipse cx="81" cy="162" rx="30" ry="30" transform="rotate(63,80,65)" fill="rgb(79,56,40)" /><ellipse cx="80" cy="155" rx="30" ry="30" transform="rotate(63,80,65)" fill="rgb(115,84,55)" /><ellipse cx="4" cy="28" rx="30" ry="30" transform="rotate(63,80,65)" fill="rgb(135,145,95)" /><ellipse cx="20" cy="4" rx="30" ry="30" transform="rotate(63,80,65)" fill="rgb(103,126,84)" /><ellipse cx="70" cy="0" rx="30" ry="30" transform="rotate(63,80,65)" fill="rgb(67,97,61)" /><ellipse cx="24" cy="179" rx="30" ry="30" transform="rotate(63,80,65)" fill="rgb(54,39,46)" /><ellipse cx="13" cy="191" rx="30" ry="30" transform="rotate(63,80,65)" fill="rgb(50,34,45)" /><ellipse cx="112" cy="104" rx="30" ry="30" transform="rotate(63,80,65)" fill="rgb(54,23,20)" /><ellipse cx="12" cy="16" rx="30" ry="30" transform="rotate(63,80,65)" fill="rgb(123,132,85)" /><ellipse cx="18" cy="35" rx="30" ry="30" transform="rotate(63,80,65)" fill="rgb(146,149,96)" /><ellipse cx="23" cy="69" rx="30" ry="30" transform="rotate(63,80,65)" fill="rgb(98,98,60)" /><ellipse cx="113" cy="264" rx="30" ry="30" transform="rotate(63,80,65)" fill="rgb(16,9,25)" /><ellipse cx="137" cy="241" rx="30" ry="30" transform="rotate(63,80,65)" fill="rgb(18,9,26)" /><ellipse cx="157" cy="224" rx="30" ry="30" transform="rotate(63,80,65)" fill="rgb(32,27,49)" /><ellipse cx="133" cy="57" rx="30" ry="30" transform="rotate(63,80,65)" fill="rgb(108,119,79)" /><ellipse cx="88" cy="48" rx="30" ry="30" transform="rotate(63,80,65)" fill="rgb(213,173,75)" /><ellipse cx="4" cy="175" rx="30" ry="30" transform="rotate(63,80,65)" fill="rgb(69,50,44)" /><ellipse cx="42" cy="81" rx="30" ry="30" transform="rotate(63,80,65)" fill="rgb(86,82,57)" /><ellipse cx="69" cy="105" rx="30" ry="30" transform="rotate(63,80,65)" fill="rgb(65,35,35)" /><ellipse cx="32" cy="36" rx="30" ry="30" transform="rotate(63,80,65)" fill="rgb(146,149,94)" /><ellipse cx="154" cy="67" rx="30" ry="30" transform="rotate(63,80,65)" fill="rgb(167,168,111)" /><ellipse cx="122" cy="134" rx="30" ry="30" transform="rotate(63,80,65)" fill="rgb(133,97,35)" /><ellipse cx="78" cy="162" rx="30" ry="30" transform="rotate(63,80,65)" fill="rgb(79,56,48)" /><ellipse cx="138" cy="36" rx="30" ry="30" transform="rotate(63,80,65)" fill="rgb(137,146,99)" /><ellipse cx="137" cy="26" rx="30" ry="30" transform="rotate(63,80,65)" fill="rgb(128,136,85)" /><ellipse cx="19" cy="129" rx="30" ry="30" transform="rotate(63,80,65)" fill="rgb(110,74,50)" /><ellipse cx="145" cy="237" rx="30" ry="30" transform="rotate(63,80,65)" fill="rgb(13,8,30)" /><ellipse cx="31" cy="176" rx="30" ry="30" transform="rotate(63,80,65)" fill="rgb(37,30,46)" /><ellipse cx="125" cy="83" rx="30" ry="30" transform="rotate(63,80,65)" fill="rgb(37,24,31)" /><ellipse cx="162" cy="267" rx="30" ry="30" transform="rotate(63,80,65)" fill="rgb(23,12,28)" /><ellipse cx="42" cy="71" rx="30" ry="30" transform="rotate(63,80,65)" fill="rgb(58,58,30)" /><ellipse cx="67" cy="222" rx="30" ry="30" transform="rotate(63,80,65)" fill="rgb(173,118,54)" /><ellipse cx="142" cy="104" rx="30" ry="30" transform="rotate(63,80,65)" fill="rgb(72,81,52)" /><ellipse cx="83" cy="137" rx="30" ry="30" transform="rotate(63,80,65)" fill="rgb(233,202,111)" /><ellipse cx="12" cy="179" rx="30" ry="30" transform="rotate(63,80,65)" fill="rgb(86,62,50)" /><ellipse cx="138" cy="203" rx="30" ry="30" transform="rotate(63,80,65)" fill="rgb(39,21,37)" /><ellipse cx="83" cy="47" rx="30" ry="30" transform="rotate(63,80,65)" fill="rgb(232,193,102)" /><ellipse cx="122" cy="54" rx="30" ry="30" transform="rotate(63,80,65)" fill="rgb(30,22,19)" /><ellipse cx="59" cy="157" rx="30" ry="30" transform="rotate(63,80,65)" fill="rgb(63,43,32)" /><ellipse cx="37" cy="158" rx="30" ry="30" transform="rotate(63,80,65)" fill="rgb(39,31,44)" /><ellipse cx="77" cy="181" rx="30" ry="30" transform="rotate(63,80,65)" fill="rgb(56,40,40)" /><ellipse cx="49" cy="246" rx="30" ry="30" transform="rotate(63,80,65)" fill="rgb(83,40,24)" /><ellipse cx="66" cy="27" rx="30" ry="30" transform="rotate(63,80,65)" fill="rgb(138,141,86)" /><ellipse cx="52" cy="127" rx="30" ry="30" transform="rotate(63,80,65)" fill="rgb(75,56,41)" /><ellipse cx="46" cy="242" rx="30" ry="30" transform="rotate(63,80,65)" fill="rgb(90,47,38)" /><ellipse cx="9" cy="249" rx="30" ry="30" transform="rotate(63,80,65)" fill="rgb(32,20,44)" /><ellipse cx="100" cy="186" rx="30" ry="30" transform="rotate(63,80,65)" fill="rgb(34,26,39)" /><ellipse cx="90" cy="155" rx="30" ry="30" transform="rotate(63,80,65)" fill="rgb(89,62,35)" /><ellipse cx="11" cy="219" rx="30" ry="30" transform="rotate(63,80,65)" fill="rgb(30,22,37)" /><ellipse cx="15" cy="210" rx="30" ry="30" transform="rotate(63,80,65)" fill="rgb(37,24,50)" /><ellipse cx="151" cy="238" rx="30" ry="30" transform="rotate(63,80,65)" fill="rgb(14,9,31)" /><ellipse cx="135" cy="126" rx="30" ry="30" transform="rotate(63,80,65)" fill="rgb(78,52,25)" /><ellipse cx="107" cy="97" rx="30" ry="30" transform="rotate(63,80,65)" fill="rgb(51,27,25)" /><ellipse cx="72" cy="215" rx="30" ry="30" transform="rotate(63,80,65)" fill="rgb(195,147,65)" /><ellipse cx="131" cy="201" rx="30" ry="30" transform="rotate(63,80,65)" fill="rgb(30,15,34)" /><ellipse cx="151" cy="124" rx="30" ry="30" transform="rotate(63,80,65)" fill="rgb(123,102,49)" /><ellipse cx="20" cy="53" rx="30" ry="30" transform="rotate(63,80,65)" fill="rgb(156,158,108)" /><ellipse cx="93" cy="99" rx="30" ry="30" transform="rotate(63,80,65)" fill="rgb(75,43,32)" /><ellipse cx="13" cy="59" rx="30" ry="30" transform="rotate(63,80,65)" fill="rgb(115,118,75)" /><ellipse cx="53" cy="27" rx="30" ry="30" transform="rotate(63,80,65)" fill="rgb(136,141,85)" /><ellipse cx="104" cy="54" rx="30" ry="30" transform="rotate(63,80,65)" fill="rgb(110,76,41)" /><ellipse cx="95" cy="137" rx="30" ry="30" transform="rotate(63,80,65)" fill="rgb(236,202,113)" /><ellipse cx="21" cy="224" rx="30" ry="30" transform="rotate(63,80,65)" fill="rgb(24,16,39)" /><ellipse cx="13" cy="133" rx="30" ry="30" transform="rotate(63,80,65)" fill="rgb(101,67,39)" /><ellipse cx="15" cy="263" rx="30" ry="30" transform="rotate(63,80,65)" fill="rgb(22,9,35)" /><ellipse cx="157" cy="199" rx="30" ry="30" transform="rotate(63,80,65)" fill="rgb(27,22,44)" /><ellipse cx="151" cy="82" rx="30" ry="30" transform="rotate(63,80,65)" fill="rgb(65,78,60)" /><ellipse cx="134" cy="71" rx="30" ry="30" transform="rotate(63,80,65)" fill="rgb(72,85,55)" /><ellipse cx="145" cy="259" rx="30" ry="30" transform="rotate(63,80,65)" fill="rgb(8,5,24)" /><ellipse cx="51" cy="67" rx="30" ry="30" transform="rotate(63,80,65)" fill="rgb(96,94,53)" /><ellipse cx="58" cy="78" rx="30" ry="30" transform="rotate(63,80,65)" fill="rgb(69,45,41)" /><ellipse cx="175" cy="23" rx="30" ry="30" transform="rotate(63,80,65)" fill="rgb(136,144,93)" /><ellipse cx="145" cy="37" rx="30" ry="30" transform="rotate(63,80,65)" fill="rgb(145,151,103)" /><ellipse cx="33" cy="252" rx="30" ry="30" transform="rotate(63,80,65)" fill="rgb(31,17,30)" /><ellipse cx="72" cy="113" rx="30" ry="30" transform="rotate(63,80,65)" fill="rgb(70,35,29)" /><ellipse cx="65" cy="49" rx="30" ry="30" transform="rotate(63,80,65)" fill="rgb(68,36,15)" /><ellipse cx="136" cy="206" rx="30" ry="30" transform="rotate(63,80,65)" fill="rgb(43,24,43)" /><ellipse cx="125" cy="33" rx="30" ry="30" transform="rotate(63,80,65)" fill="rgb(139,144,90)" /><ellipse cx="41" cy="227" rx="30" ry="30" transform="rotate(63,80,65)" fill="rgb(34,20,35)" /><ellipse cx="44" cy="17" rx="30" ry="30" transform="rotate(63,80,65)" fill="rgb(115,127,77)" /><ellipse cx="23" cy="111" rx="30" ry="30" transform="rotate(63,80,65)" fill="rgb(117,116,85)" /><ellipse cx="119" cy="141" rx="30" ry="30" transform="rotate(63,80,65)" fill="rgb(67,39,15)" /><ellipse cx="103" cy="93" rx="30" ry="30" transform="rotate(63,80,65)" fill="rgb(66,37,33)" /><ellipse cx="47" cy="202" rx="30" ry="30" transform="rotate(63,80,65)" fill="rgb(129,85,58)" /><ellipse cx="2" cy="270" rx="30" ry="30" transform="rotate(63,80,65)" fill="rgb(20,7,33)" /><ellipse cx="143" cy="252" rx="30" ry="30" transform="rotate(63,80,65)" fill="rgb(9,6,27)" /><ellipse cx="115" cy="113" rx="30" ry="30" transform="rotate(63,80,65)" fill="rgb(72,32,20)" /><ellipse cx="75" cy="131" rx="30" ry="30" transform="rotate(63,80,65)" fill="rgb(232,194,95)" /><ellipse cx="90" cy="115" rx="30" ry="30" transform="rotate(63,80,65)" fill="rgb(196,160,74)" /><ellipse cx="106" cy="106" rx="30" ry="30" transform="rotate(63,80,65)" fill="rgb(125,89,39)" /><ellipse cx="133" cy="191" rx="30" ry="30" transform="rotate(63,80,65)" fill="rgb(40,20,32)" /><ellipse cx="141" cy="211" rx="30" ry="30" transform="rotate(63,80,65)" fill="rgb(34,17,33)" /><ellipse cx="163" cy="14" rx="30" ry="30" transform="rotate(63,80,65)" fill="rgb(118,132,83)" /><ellipse cx="105" cy="118" rx="30" ry="30" transform="rotate(63,80,65)" fill="rgb(204,168,74)" /><ellipse cx="119" cy="35" rx="30" ry="30" transform="rotate(63,80,65)" fill="rgb(139,146,94)" /><ellipse cx="92" cy="183" rx="30" ry="30" transform="rotate(63,80,65)" fill="rgb(34,22,34)" /><ellipse cx="177" cy="208" rx="30" ry="30" transform="rotate(63,80,65)" fill="rgb(55,44,61)" /><ellipse cx="57" cy="260" rx="30" ry="30" transform="rotate(63,80,65)" fill="rgb(30,13,32)" /><ellipse cx="7" cy="61" rx="30" ry="30" transform="rotate(63,80,65)" fill="rgb(82,88,62)" /><ellipse cx="148" cy="149" rx="30" ry="30" transform="rotate(63,80,65)" fill="rgb(28,22,36)" /><ellipse cx="89" cy="56" rx="30" ry="30" transform="rotate(63,80,65)" fill="rgb(198,156,72)" /><ellipse cx="32" cy="131" rx="30" ry="30" transform="rotate(63,80,65)" fill="rgb(141,115,54)" /><ellipse cx="132" cy="181" rx="30" ry="30" transform="rotate(63,80,65)" fill="rgb(32,18,35)" /><ellipse cx="144" cy="1" rx="30" ry="30" transform="rotate(63,80,65)" fill="rgb(66,98,61)" /><ellipse cx="140" cy="228" rx="30" ry="30" transform="rotate(63,80,65)" fill="rgb(68,33,39)" /><ellipse cx="58" cy="25" rx="30" ry="30" transform="rotate(63,80,65)" fill="rgb(133,138,82)" /><ellipse cx="140" cy="65" rx="30" ry="30" transform="rotate(63,80,65)" fill="rgb(69,92,66)" /><ellipse cx="121" cy="16" rx="30" ry="30" transform="rotate(63,80,65)" fill="rgb(122,136,87)" /><ellipse cx="8" cy="31" rx="30" ry="30" transform="rotate(63,80,65)" fill="rgb(132,141,96)" /><ellipse cx="8" cy="194" rx="30" ry="30" transform="rotate(63,80,65)" fill="rgb(45,31,46)" /><ellipse cx="157" cy="250" rx="30" ry="30" transform="rotate(63,80,65)" fill="rgb(21,13,34)" /><ellipse cx="99" cy="262" rx="30" ry="30" transform="rotate(63,80,65)" fill="rgb(9,6,25)" /><ellipse cx="168" cy="139" rx="30" ry="30" transform="rotate(63,80,65)" fill="rgb(109,71,68)" /><ellipse cx="40" cy="59" rx="30" ry="30" transform="rotate(63,80,65)" fill="rgb(143,146,99)" /><ellipse cx="26" cy="258" rx="30" ry="30" transform="rotate(63,80,65)" fill="rgb(30,18,42)" /><ellipse cx="143" cy="90" rx="30" ry="30" transform="rotate(63,80,65)" fill="rgb(79,87,63)" /><ellipse cx="139" cy="176" rx="30" ry="30" transform="rotate(63,80,65)" fill="rgb(38,21,37)" /><ellipse cx="131" cy="102" rx="30" ry="30" transform="rotate(63,80,65)" fill="rgb(66,70,56)" /><ellipse cx="130" cy="75" rx="30" ry="30" transform="rotate(63,80,65)" fill="rgb(68,73,53)" /><ellipse cx="37" cy="24" rx="30" ry="30" transform="rotate(63,80,65)" fill="rgb(131,140,87)" /><ellipse cx="178" cy="36" rx="30" ry="30" transform="rotate(63,80,65)" fill="rgb(150,157,103)" /><ellipse cx="88" cy="152" rx="30" ry="30" transform="rotate(63,80,65)" fill="rgb(120,82,46)" /><ellipse cx="110" cy="263" rx="30" ry="30" transform="rotate(63,80,65)" fill="rgb(10,7,26)" /><ellipse cx="111" cy="57" rx="30" ry="30" transform="rotate(63,80,65)" fill="rgb(33,14,33)" /><ellipse cx="167" cy="92" rx="30" ry="30" transform="rotate(63,80,65)" fill="rgb(81,90,71)" /><ellipse cx="22" cy="261" rx="30" ry="30" transform="rotate(63,80,65)" fill="rgb(28,16,40)" /><ellipse cx="166" cy="234" rx="30" ry="30" transform="rotate(63,80,65)" fill="rgb(28,19,38)" /><ellipse cx="22" cy="29" rx="30" ry="30" transform="rotate(63,80,65)" fill="rgb(136,144,87)" /><ellipse cx="183" cy="138" rx="30" ry="30" transform="rotate(63,80,65)" fill="rgb(129,116,71)" /><ellipse cx="92" cy="59" rx="30" ry="30" transform="rotate(63,80,65)" fill="rgb(139,93,31)" /><ellipse cx="62" cy="195" rx="30" ry="30" transform="rotate(63,80,65)" fill="rgb(32,26,40)" /><ellipse cx="78" cy="4" rx="30" ry="30" transform="rotate(63,80,65)" fill="rgb(97,114,69)" /><ellipse cx="163" cy="235" rx="30" ry="30" transform="rotate(63,80,65)" fill="rgb(24,16,37)" /><ellipse cx="111" cy="221" rx="30" ry="30" transform="rotate(63,80,65)" fill="rgb(149,97,50)" /><ellipse cx="74" cy="156" rx="30" ry="30" transform="rotate(63,80,65)" fill="rgb(97,74,40)" /></svg>