<svg xmlns="http://www.w3.org/2000/svg" width="184" height="274" version="1.1"><circle cx="101" cy="207" r="30" fill="rgb(22,18,43)" /><circle cx="133" cy="216" r="30" fill="rgb(49,23,32)" /><circle cx="174" cy="126" r="30" fill="rgb(124,113,83)" /><circle cx="0" cy="38" r="30" fill="rgb(125,127,77)" /><circle cx="58" cy="236" r="30" fill="rgb(186,135,70)" /><circle cx="151" cy="254" r="30" fill="rgb(8,7,25)" /><circle cx="165" cy="55" r="30" fill="rgb(170,166,102)" /><circle cx="76" cy="45" r="30" fill="rgb(227,189,90)" /><circle cx="2" cy="82" r="30" fill="rgb(67,63,54)" /><circle cx="105" cy="162" r="30" fill="rgb(30,19,33)" /><circle cx="65" cy="14" r="30" fill="rgb(113,127,78)" /><circle cx="20" cy="68" r="30" fill="rgb(110,114,79)" /><circle cx="11" cy="85" r="30" fill="rgb(77,78,62)" /><circle cx="77" cy="270" r="30" fill="rgb(19,10,27)" /><circle cx="108" cy="113" r="30" fill="rgb(165,125,53)" /><circle cx="170" cy="239" r="30" fill="rgb(32,18,35)" /><circle cx="17" cy="77" r="30" fill="rgb(74,83,64)" /><circle cx="23" cy="236" r="30" fill="rgb(35,22,40)" /><circle cx="71" cy="138" r="30" fill="rgb(246,211,111)" /><circle cx="121" cy="103" r="30" fill="rgb(31,19,31)" /><circle cx="17" cy="106" r="30" fill="rgb(65,63,48)" /><circle cx="183" cy="184" r="30" fill="rgb(88,67,66)" /><circle cx="151" cy="54" r="30" fill="rgb(160,161,104)" /><circle cx="163" cy="137" r="30" fill="rgb(92,51,57)" /><circle cx="144" cy="212" r="30" fill="rgb(29,17,37)" /><circle cx="130" cy="143" r="30" fill="rgb(36,20,30)" /><circle cx="46" cy="128" r="30" fill="rgb(97,72,32)" /><circle cx="161" cy="169" r="30" fill="rgb(62,44,58)" /><circle cx="123" cy="116" r="30" fill="rgb(97,68,52)" /><circle cx="53" cy="240" r="30" fill="rgb(153,101,44)" /><circle cx="47" cy="1" r="30" fill="rgb(74,105,64)" /><circle cx="111" cy="86" r="30" fill="rgb(43,22,29)" /><circle cx="130" cy="202" r="30" fill="rgb(29,14,33)" /><circle cx="37" cy="21" r="30" fill="rgb(130,140,88)" /><circle cx="80" cy="54" r="30" fill="rgb(219,178,88)" /><circle cx="24" cy="146" r="30" fill="rgb(153,100,60)" /><circle cx="55" cy="169" r="30" fill="rgb(48,35,42)" /><circle cx="120" cy="155" r="30" fill="rgb(62,49,40)" /><circle cx="180" cy="101" r="30" fill="rgb(88,88,76)" /><circle cx="6" cy="2" r="30" fill="rgb(86,112,77)" /><circle cx="80" cy="144" r="30" fill="rgb(242,207,117)" /><circle cx="65" cy="23" r="30" fill="rgb(134,137,84)" /><circle cx="101" cy="186" r="30" fill="rgb(33,25,38)" /><circle cx="133" cy="139" r="30" fill="rgb(42,21,30)" /><circle cx="76" cy="124" r="30" fill="rgb(223,187,91)" /><circle cx="161" cy="213" r="30" fill="rgb(36,27,48)" /><circle cx="60" cy="224" r="30" fill="rgb(143,95,47)" /><circle cx="35" cy="216" r="30" fill="rgb(66,42,42)" /><circle cx="28" cy="158" r="30" fill="rgb(123,59,34)" /><circle cx="154" cy="185" r="30" fill="rgb(31,22,43)" /><circle cx="56" cy="33" r="30" fill="rgb(148,153,89)" /><circle cx="102" cy="199" r="30" fill="rgb(29,26,45)" /><circle cx="31" cy="246" r="30" fill="rgb(30,15,36)" /><circle cx="149" cy="146" r="30" fill="rgb(30,26,43)" /><circle cx="112" cy="139" r="30" fill="rgb(122,87,23)" /><circle cx="179" cy="22" r="30" fill="rgb(136,144,95)" /><circle cx="118" cy="69" r="30" fill="rgb(30,13,31)" /><circle cx="115" cy="241" r="30" fill="rgb(29,15,32)" /><circle cx="0" cy="158" r="30" fill="rgb(70,49,58)" /><circle cx="32" cy="34" r="30" fill="rgb(143,148,94)" /><circle cx="150" cy="67" r="30" fill="rgb(113,124,82)" /><circle cx="11" cy="28" r="30" fill="rgb(138,148,96)" /><circle cx="109" cy="71" r="30" fill="rgb(47,26,35)" /><circle cx="12" cy="92" r="30" fill="rgb(70,68,53)" /><circle cx="168" cy="100" r="30" fill="rgb(88,96,81)" /><circle cx="159" cy="2" r="30" fill="rgb(74,111,78)" /><circle cx="149" cy="77" r="30" fill="rgb(70,88,62)" /><circle cx="15" cy="45" r="30" fill="rgb(144,151,97)" /><circle cx="155" cy="37" r="30" fill="rgb(152,155,98)" /><circle cx="22" cy="131" r="30" fill="rgb(99,66,21)" /><circle cx="123" cy="31" r="30" fill="rgb(134,143,90)" /><circle cx="39" cy="69" r="30" fill="rgb(94,98,65)" /><circle cx="87" cy="172" r="30" fill="rgb(57,40,30)" /><circle cx="173" cy="24" r="30" fill="rgb(132,141,88)" /><circle cx="183" cy="97" r="30" fill="rgb(76,77,61)" /><circle cx="21" cy="101" r="30" fill="rgb(95,92,75)" /><circle cx="126" cy="2" r="30" fill="rgb(83,102,56)" /><circle cx="15" cy="194" r="30" fill="rgb(63,46,54)" /><circle cx="136" cy="107" r="30" fill="rgb(79,81,59)" /><circle cx="127" cy="12" r="30" fill="rgb(113,123,73)" /><circle cx="124" cy="9" r="30" fill="rgb(102,116,67)" /><circle cx="24" cy="26" r="30" fill="rgb(134,141,87)" /><circle cx="54" cy="126" r="30" fill="rgb(57,39,27)" /><circle cx="74" cy="99" r="30" fill="rgb(42,17,23)" /><circle cx="166" cy="234" r="30" fill="rgb(28,19,38)" /><circle cx="80" cy="224" r="30" fill="rgb(164,106,60)" /><circle cx="18" cy="159" r="30" fill="rgb(124,61,46)" /><circle cx="180" cy="12" r="30" fill="rgb(116,123,81)" /><circle cx="162" cy="239" r="30" fill="rgb(27,18,39)" /><circle cx="165" cy="155" r="30" fill="rgb(73,43,43)" /><circle cx="30" cy="67" r="30" fill="rgb(73,77,42)" /><circle cx="84" cy="210" r="30" fill="rgb(94,60,50)" /><circle cx="62" cy="209" r="30" fill="rgb(203,162,74)" /><circle cx="111" cy="258" r="30" fill="rgb(12,9,26)" /><circle cx="20" cy="193" r="30" fill="rgb(47,27,38)" /><circle cx="85" cy="171" r="30" fill="rgb(77,59,47)" /><circle cx="105" cy="238" r="30" fill="rgb(64,32,33)" /><circle cx="13" cy="193" r="30" fill="rgb(60,45,52)" /><circle cx="156" cy="54" r="30" fill="rgb(165,166,106)" /><circle cx="34" cy="34" r="30" fill="rgb(144,149,95)" /><circle cx="77" cy="180" r="30" fill="rgb(59,43,43)" /><circle cx="4" cy="27" r="30" fill="rgb(138,148,96)" /><circle cx="81" cy="202" r="30" fill="rgb(35,22,40)" /><circle cx="54" cy="158" r="30" fill="rgb(71,47,43)" /><circle cx="48" cy="226" r="30" fill="rgb(166,124,86)" /><circle cx="53" cy="2" r="30" fill="rgb(82,110,69)" /><circle cx="11" cy="127" r="30" fill="rgb(121,77,48)" /><circle cx="99" cy="59" r="30" fill="rgb(132,92,43)" /><circle cx="150" cy="29" r="30" fill="rgb(133,142,89)" /><circle cx="11" cy="143" r="30" fill="rgb(118,68,33)" /><circle cx="0" cy="149" r="30" fill="rgb(55,47,68)" /><circle cx="59" cy="87" r="30" fill="rgb(60,32,29)" /><circle cx="117" cy="36" r="30" fill="rgb(124,122,83)" /><circle cx="23" cy="183" r="30" fill="rgb(65,50,57)" /><circle cx="160" cy="4" r="30" fill="rgb(87,115,77)" /><circle cx="96" cy="6" r="30" fill="rgb(103,124,81)" /><circle cx="64" cy="127" r="30" fill="rgb(127,73,47)" /><circle cx="75" cy="37" r="30" fill="rgb(123,87,25)" /><circle cx="80" cy="104" r="30" fill="rgb(51,29,18)" /><circle cx="146" cy="74" r="30" fill="rgb(119,138,110)" /><circle cx="116" cy="99" r="30" fill="rgb(41,24,34)" /><circle cx="21" cy="260" r="30" fill="rgb(26,14,38)" /><circle cx="66" cy="252" r="30" fill="rgb(44,18,29)" /><circle cx="84" cy="225" r="30" fill="rgb(192,144,60)" /><circle cx="78" cy="138" r="30" fill="rgb(221,187,98)" /><circle cx="147" cy="10" r="30" fill="rgb(109,121,71)" /><circle cx="27" cy="69" r="30" fill="rgb(94,94,58)" /><circle cx="5" cy="195" r="30" fill="rgb(67,48,54)" /><circle cx="86" cy="50" r="30" fill="rgb(218,177,89)" /><circle cx="130" cy="59" r="30" fill="rgb(86,96,62)" /><circle cx="115" cy="9" r="30" fill="rgb(103,123,72)" /><circle cx="150" cy="265" r="30" fill="rgb(7,4,23)" /><circle cx="8" cy="190" r="30" fill="rgb(79,53,52)" /><circle cx="121" cy="101" r="30" fill="rgb(28,17,31)" /><circle cx="183" cy="197" r="30" fill="rgb(101,86,91)" /><circle cx="75" cy="146" r="30" fill="rgb(134,92,34)" /><circle cx="24" cy="81" r="30" fill="rgb(90,88,67)" /><circle cx="46" cy="179" r="30" fill="rgb(59,43,46)" /><circle cx="130" cy="43" r="30" fill="rgb(141,153,103)" /><circle cx="123" cy="220" r="30" fill="rgb(139,87,50)" /><circle cx="155" cy="33" r="30" fill="rgb(145,149,90)" /><circle cx="172" cy="94" r="30" fill="rgb(76,80,66)" /><circle cx="129" cy="43" r="30" fill="rgb(141,153,103)" /><circle cx="101" cy="38" r="30" fill="rgb(55,32,26)" /><circle cx="65" cy="8" r="30" fill="rgb(108,122,71)" /><circle cx="120" cy="263" r="30" fill="rgb(9,6,25)" /><circle cx="79" cy="220" r="30" fill="rgb(189,137,61)" /><circle cx="145" cy="174" r="30" fill="rgb(30,19,35)" /><circle cx="59" cy="84" r="30" fill="rgb(66,38,37)" /><circle cx="150" cy="225" r="30" fill="rgb(19,14,36)" /><circle cx="50" cy="232" r="30" fill="rgb(181,133,85)" /><circle cx="152" cy="87" r="30" fill="rgb(67,80,60)" /><circle cx="151" cy="217" r="30" fill="rgb(34,24,48)" /><circle cx="3" cy="203" r="30" fill="rgb(60,41,45)" /><circle cx="14" cy="95" r="30" fill="rgb(54,52,39)" /><circle cx="82" cy="59" r="30" fill="rgb(210,167,89)" /><circle cx="30" cy="35" r="30" fill="rgb(146,149,96)" /><circle cx="41" cy="100" r="30" fill="rgb(93,101,78)" /><circle cx="44" cy="116" r="30" fill="rgb(55,39,24)" /><circle cx="147" cy="5" r="30" fill="rgb(95,118,74)" /><circle cx="140" cy="1" r="30" fill="rgb(69,95,58)" /><circle cx="113" cy="108" r="30" fill="rgb(68,38,28)" /><circle cx="60" cy="210" r="30" fill="rgb(194,148,71)" /><circle cx="145" cy="156" r="30" fill="rgb(63,49,49)" /><circle cx="132" cy="145" r="30" fill="rgb(56,41,46)" /><circle cx="66" cy="207" r="30" fill="rgb(194,145,52)" /><circle cx="55" cy="38" r="30" fill="rgb(152,156,97)" /><circle cx="177" cy="14" r="30" fill="rgb(129,132,87)" /><circle cx="7" cy="97" r="30" fill="rgb(63,60,45)" /><circle cx="99" cy="270" r="30" fill="rgb(15,7,28)" /><circle cx="10" cy="262" r="30" fill="rgb(25,12,38)" /><circle cx="161" cy="191" r="30" fill="rgb(38,27,44)" /><circle cx="11" cy="69" r="30" fill="rgb(96,107,77)" /><circle cx="124" cy="224" r="30" fill="rgb(123,69,41)" /><circle cx="132" cy="88" r="30" fill="rgb(76,79,60)" /><circle cx="47" cy="69" r="30" fill="rgb(111,109,71)" /><circle cx="143" cy="172" r="30" fill="rgb(27,14,32)" /><circle cx="119" cy="160" r="30" fill="rgb(36,24,24)" /><circle cx="95" cy="271" r="30" fill="rgb(12,7,29)" /><circle cx="128" cy="82" r="30" fill="rgb(54,54,42)" /><circle cx="77" cy="179" r="30" fill="rgb(61,45,45)" /><circle cx="164" cy="198" r="30" fill="rgb(37,28,49)" /><circle cx="93" cy="113" r="30" fill="rgb(183,145,70)" /><circle cx="75" cy="144" r="30" fill="rgb(197,158,83)" /><circle cx="23" cy="250" r="30" fill="rgb(23,11,33)" /><circle cx="90" cy="69" r="30" fill="rgb(223,183,88)" /><circle cx="123" cy="97" r="30" fill="rgb(35,29,39)" /><circle cx="42" cy="58" r="30" fill="rgb(163,167,117)" /><circle cx="5" cy="265" r="30" fill="rgb(22,9,35)" /><circle cx="133" cy="27" r="30" fill="rgb(126,134,83)" /><circle cx="158" cy="116" r="30" fill="rgb(159,139,80)" /><circle cx="65" cy="12" r="30" fill="rgb(112,124,74)" /><circle cx="104" cy="107" r="30" fill="rgb(147,109,46)" /><circle cx="20" cy="119" r="30" fill="rgb(117,93,55)" /><circle cx="0" cy="197" r="30" fill="rgb(105,78,69)" /><circle cx="75" cy="113" r="30" fill="rgb(70,36,11)" /><circle cx="137" cy="89" r="30" fill="rgb(74,79,57)" /><circle cx="159" cy="202" r="30" fill="rgb(28,23,45)" /><circle cx="80" cy="36" r="30" fill="rgb(143,102,36)" /><circle cx="175" cy="107" r="30" fill="rgb(115,110,88)" /><circle cx="128" cy="37" r="30" fill="rgb(140,144,94)" /><circle cx="96" cy="101" r="30" fill="rgb(79,50,34)" /><circle cx="80" cy="217" r="30" fill="rgb(192,145,67)" /><circle cx="132" cy="62" r="30" fill="rgb(78,89,59)" /><circle cx="91" cy="262" r="30" fill="rgb(13,5,28)" /><circle cx="82" cy="231" r="30" fill="rgb(183,132,75)" /><circle cx="67" cy="135" r="30" fill="rgb(224,184,86)" /><circle cx="113" cy="131" r="30" fill="rgb(122,67,36)" /><circle cx="159" cy="218" r="30" fill="rgb(49,39,63)" /><circle cx="29" cy="22" r="30" fill="rgb(130,138,89)" /><circle cx="165" cy="125" r="30" fill="rgb(133,117,58)" /><circle cx="60" cy="196" r="30" fill="rgb(30,26,41)" /><circle cx="50" cy="247" r="30" fill="rgb(88,40,26)" /><circle cx="42" cy="82" r="30" fill="rgb(88,84,59)" /><circle cx="40" cy="226" r="30" fill="rgb(34,24,48)" /><circle cx="79" cy="188" r="30" fill="rgb(66,51,48)" /><circle cx="128" cy="68" r="30" fill="rgb(58,66,43)" /><circle cx="21" cy="168" r="30" fill="rgb(160,122,59)" /><circle cx="167" cy="37" r="30" fill="rgb(149,150,93)" /><circle cx="145" cy="222" r="30" fill="rgb(19,9,33)" /><circle cx="87" cy="122" r="30" fill="rgb(233,195,94)" /><circle cx="167" cy="53" r="30" fill="rgb(169,164,100)" /><circle cx="123" cy="61" r="30" fill="rgb(29,25,26)" /><circle cx="81" cy="184" r="30" fill="rgb(73,52,49)" /><circle cx="93" cy="219" r="30" fill="rgb(197,147,74)" /><circle cx="74" cy="79" r="30" fill="rgb(194,156,75)" /><circle cx="167" cy="205" r="30" fill="rgb(41,32,53)" /><circle cx="125" cy="138" r="30" fill="rgb(87,52,24)" /><circle cx="149" cy="160" r="30" fill="rgb(31,23,36)" /><circle cx="106" cy="61" r="30" fill="rgb(82,51,31)" /><circle cx="46" cy="229" r="30" fill="rgb(124,83,51)" /><circle cx="117" cy="69" r="30" fill="rgb(33,16,34)" /><circle cx="101" cy="148" r="30" fill="rgb(126,96,36)" /><circle cx="177" cy="36" r="30" fill="rgb(151,155,105)" /><circle cx="68" cy="38" r="30" fill="rgb(106,92,43)" /><circle cx="93" cy="198" r="30" fill="rgb(30,21,42)" /><circle cx="58" cy="27" r="30" fill="rgb(132,137,81)" /><circle cx="43" cy="98" r="30" fill="rgb(79,81,59)" /><circle cx="0" cy="81" r="30" fill="rgb(65,61,50)" /><circle cx="60" cy="76" r="30" fill="rgb(71,36,32)" /><circle cx="25" cy="76" r="30" fill="rgb(100,96,67)" /><circle cx="77" cy="210" r="30" fill="rgb(185,137,65)" /><circle cx="136" cy="165" r="30" fill="rgb(68,46,25)" /><circle cx="111" cy="14" r="30" fill="rgb(115,130,75)" /><circle cx="89" cy="175" r="30" fill="rgb(58,43,36)" /><circle cx="142" cy="250" r="30" fill="rgb(9,6,27)" /><circle cx="81" cy="234" r="30" fill="rgb(161,113,51)" /><circle cx="143" cy="266" r="30" fill="rgb(7,2,22)" /><circle cx="57" cy="122" r="30" fill="rgb(46,26,38)" /><circle cx="66" cy="35" r="30" fill="rgb(157,157,105)" /><circle cx="167" cy="175" r="30" fill="rgb(42,33,52)" /><circle cx="169" cy="64" r="30" fill="rgb(157,155,94)" /><circle cx="145" cy="45" r="30" fill="rgb(154,162,105)" /><circle cx="87" cy="171" r="30" fill="rgb(61,45,32)" /><circle cx="182" cy="117" r="30" fill="rgb(87,79,68)" /><circle cx="144" cy="150" r="30" fill="rgb(31,25,35)" /><circle cx="38" cy="44" r="30" fill="rgb(162,161,104)" /><circle cx="42" cy="0" r="30" fill="rgb(64,94,56)" /><circle cx="30" cy="82" r="30" fill="rgb(80,85,62)" /><circle cx="125" cy="31" r="30" fill="rgb(131,138,86)" /><circle cx="35" cy="205" r="30" fill="rgb(140,103,76)" /><circle cx="13" cy="12" r="30" fill="rgb(118,131,77)" /><circle cx="91" cy="80" r="30" fill="rgb(190,149,70)" /><circle cx="91" cy="266" r="30" fill="rgb(15,7,30)" /><circle cx="47" cy="239" r="30" fill="rgb(132,79,48)" /><circle cx="98" cy="46" r="30" fill="rgb(129,88,36)" /><circle cx="176" cy="199" r="30" fill="rgb(45,36,55)" /><circle cx="85" cy="115" r="30" fill="rgb(206,169,88)" /><circle cx="11" cy="45" r="30" fill="rgb(149,154,100)" /><circle cx="160" cy="220" r="30" fill="rgb(38,29,50)" /><circle cx="144" cy="245" r="30" fill="rgb(11,6,26)" /><circle cx="135" cy="32" r="30" fill="rgb(132,140,91)" /><circle cx="136" cy="19" r="30" fill="rgb(123,131,80)" /><circle cx="135" cy="13" r="30" fill="rgb(115,124,77)" /><circle cx="88" cy="226" r="30" fill="rgb(176,127,71)" /><circle cx="12" cy="164" r="30" fill="rgb(131,93,54)" /><circle cx="41" cy="67" r="30" fill="rgb(87,90,47)" /><circle cx="27" cy="5" r="30" fill="rgb(101,120,75)" /><circle cx="43" cy="60" r="30" fill="rgb(139,146,95)" /><circle cx="167" cy="194" r="30" fill="rgb(39,30,51)" /><circle cx="19" cy="38" r="30" fill="rgb(156,159,106)" /><circle cx="79" cy="84" r="30" fill="rgb(194,151,73)" /><circle cx="162" cy="170" r="30" fill="rgb(62,46,59)" /><circle cx="94" cy="109" r="30" fill="rgb(151,111,49)" /><circle cx="78" cy="130" r="30" fill="rgb(236,200,103)" /><circle cx="43" cy="143" r="30" fill="rgb(48,32,43)" /><circle cx="41" cy="33" r="30" fill="rgb(146,151,97)" /><circle cx="66" cy="113" r="30" fill="rgb(51,18,29)" /><circle cx="180" cy="116" r="30" fill="rgb(105,96,81)" /><circle cx="151" cy="157" r="30" fill="rgb(49,35,50)" /><circle cx="32" cy="192" r="30" fill="rgb(77,51,54)" /><circle cx="12" cy="256" r="30" fill="rgb(26,13,39)" /><circle cx="100" cy="266" r="30" fill="rgb(10,5,25)" /><circle cx="100" cy="141" r="30" fill="rgb(229,200,108)" /><circle cx="11" cy="124" r="30" fill="rgb(104,64,38)" /><circle cx="173" cy="63" r="30" fill="rgb(142,145,100)" /><circle cx="115" cy="65" r="30" fill="rgb(29,16,34)" /><circle cx="69" cy="162" r="30" fill="rgb(73,56,48)" /><circle cx="32" cy="196" r="30" fill="rgb(78,41,23)" /><circle cx="110" cy="111" r="30" fill="rgb(122,79,24)" /><circle cx="95" cy="209" r="30" fill="rgb(19,15,29)" /><circle cx="58" cy="212" r="30" fill="rgb(187,139,73)" /><circle cx="1" cy="221" r="30" fill="rgb(84,63,60)" /><circle cx="1" cy="92" r="30" fill="rgb(54,42,44)" /><circle cx="84" cy="33" r="30" fill="rgb(119,77,29)" /><circle cx="51" cy="37" r="30" fill="rgb(145,148,93)" /><circle cx="110" cy="8" r="30" fill="rgb(106,126,75)" /><circle cx="99" cy="118" r="30" fill="rgb(217,184,91)" /><circle cx="26" cy="257" r="30" fill="rgb(28,16,40)" /><circle cx="165" cy="75" r="30" fill="rgb(126,127,87)" /><circle cx="126" cy="60" r="30" fill="rgb(67,71,56)" /><circle cx="99" cy="198" r="30" fill="rgb(27,23,40)" /><circle cx="99" cy="223" r="30" fill="rgb(130,66,38)" /><circle cx="50" cy="103" r="30" fill="rgb(109,120,90)" /><circle cx="155" cy="115" r="30" fill="rgb(114,102,52)" /><circle cx="63" cy="44" r="30" fill="rgb(152,146,112)" /><circle cx="25" cy="106" r="30" fill="rgb(89,91,70)" /><circle cx="52" cy="190" r="30" fill="rgb(45,25,37)" /><circle cx="179" cy="21" r="30" fill="rgb(136,142,94)" /><circle cx="113" cy="163" r="30" fill="rgb(46,37,40)" /><circle cx="132" cy="74" r="30" fill="rgb(88,96,73)" /><circle cx="154" cy="256" r="30" fill="rgb(9,6,25)" /><circle cx="84" cy="186" r="30" fill="rgb(49,30,36)" /><circle cx="108" cy="246" r="30" fill="rgb(25,11,28)" /><circle cx="174" cy="37" r="30" fill="rgb(148,148,96)" /><circle cx="72" cy="73" r="30" fill="rgb(228,185,107)" /><circle cx="16" cy="209" r="30" fill="rgb(40,30,57)" /><circle cx="111" cy="213" r="30" fill="rgb(15,9,45)" /><circle cx="172" cy="51" r="30" fill="rgb(153,154,97)" /><circle cx="131" cy="3" r="30" fill="rgb(84,109,67)" /><circle cx="79" cy="259" r="30" fill="rgb(28,13,34)" /><circle cx="7" cy="111" r="30" fill="rgb(80,87,69)" /><circle cx="115" cy="230" r="30" fill="rgb(73,30,11)" /><circle cx="2" cy="151" r="30" fill="rgb(51,38,56)" /><circle cx="8" cy="105" r="30" fill="rgb(53,53,45)" /><circle cx="91" cy="24" r="30" fill="rgb(145,133,95)" /><circle cx="109" cy="83" r="30" fill="rgb(44,22,25)" /><circle cx="34" cy="33" r="30" fill="rgb(143,148,94)" /><circle cx="162" cy="105" r="30" fill="rgb(96,93,60)" /><circle cx="38" cy="92" r="30" fill="rgb(80,77,58)" /><circle cx="90" cy="257" r="30" fill="rgb(16,8,31)" /><circle cx="55" cy="92" r="30" fill="rgb(106,98,75)" /><circle cx="101" cy="91" r="30" fill="rgb(86,53,36)" /><circle cx="169" cy="49" r="30" fill="rgb(160,159,95)" /><circle cx="145" cy="235" r="30" fill="rgb(13,8,30)" /><circle cx="76" cy="18" r="30" fill="rgb(123,127,76)" /><circle cx="134" cy="144" r="30" fill="rgb(39,25,40)" /><circle cx="43" cy="27" r="30" fill="rgb(135,142,88)" /><circle cx="37" cy="127" r="30" fill="rgb(107,78,38)" /><circle cx="47" cy="169" r="30" fill="rgb(52,40,54)" /><circle cx="135" cy="189" r="30" fill="rgb(45,21,34)" /><circle cx="16" cy="79" r="30" fill="rgb(64,72,51)" /><circle cx="60" cy="242" r="30" fill="rgb(93,52,34)" /><circle cx="44" cy="56" r="30" fill="rgb(164,168,117)" /><circle cx="166" cy="84" r="30" fill="rgb(88,98,74)" /><circle cx="120" cy="234" r="30" fill="rgb(67,37,29)" /><circle cx="40" cy="97" r="30" fill="rgb(80,80,56)" /><circle cx="102" cy="213" r="30" fill="rgb(17,17,53)" /><circle cx="53" cy="50" r="30" fill="rgb(157,165,105)" /><circle cx="117" cy="75" r="30" fill="rgb(35,25,36)" /><circle cx="69" cy="217" r="30" fill="rgb(192,140,64)" /><circle cx="99" cy="180" r="30" fill="rgb(35,24,38)" /><circle cx="131" cy="89" r="30" fill="rgb(79,80,62)" /><circle cx="108" cy="193" r="30" fill="rgb(17,15,36)" /><circle cx="143" cy="259" r="30" fill="rgb(10,5,25)" /><circle cx="161" cy="250" r="30" fill="rgb(38,20,36)" /><circle cx="14" cy="95" r="30" fill="rgb(54,52,39)" /><circle cx="42" cy="83" r="30" fill="rgb(88,84,59)" /><circle cx="59" cy="109" r="30" fill="rgb(92,78,65)" /><circle cx="38" cy="158" r="30" fill="rgb(48,42,54)" /><circle cx="100" cy="207" r="30" fill="rgb(24,18,44)" /><circle cx="30" cy="216" r="30" fill="rgb(64,35,39)" /><circle cx="141" cy="12" r="30" fill="rgb(116,125,78)" /><circle cx="84" cy="93" r="30" fill="rgb(199,151,85)" /><circle cx="35" cy="17" r="30" fill="rgb(123,135,85)" /><circle cx="61" cy="208" r="30" fill="rgb(206,164,80)" /><circle cx="162" cy="254" r="30" fill="rgb(44,23,38)" /><circle cx="2" cy="61" r="30" fill="rgb(65,61,49)" /><circle cx="70" cy="176" r="30" fill="rgb(48,35,44)" /><circle cx="1" cy="186" r="30" fill="rgb(89,68,65)" /><circle cx="71" cy="229" r="30" fill="rgb(151,100,53)" /><circle cx="78" cy="217" r="30" fill="rgb(196,145,64)" /><circle cx="57" cy="122" r="30" fill="rgb(46,26,38)" /><circle cx="55" cy="261" r="30" fill="rgb(25,8,27)" /><circle cx="110" cy="246" r="30" fill="rgb(21,8,25)" /><circle cx="113" cy="257" r="30" fill="rgb(15,8,24)" /><circle cx="42" cy="4" r="30" fill="rgb(104,127,83)" /><circle cx="93" cy="22" r="30" fill="rgb(137,134,91)" /><circle cx="68" cy="163" r="30" fill="rgb(63,45,41)" /><circle cx="148" cy="101" r="30" fill="rgb(72,77,55)" /><circle cx="162" cy="235" r="30" fill="rgb(23,15,36)" /><circle cx="23" cy="213" r="30" fill="rgb(58,38,47)" /><circle cx="22" cy="123" r="30" fill="rgb(113,82,35)" /><circle cx="71" cy="105" r="30" fill="rgb(57,28,32)" /><circle cx="81" cy="267" r="30" fill="rgb(24,13,30)" /><circle cx="176" cy="96" r="30" fill="rgb(74,81,65)" /><circle cx="93" cy="154" r="30" fill="rgb(99,68,40)" /><circle cx="161" cy="181" r="30" fill="rgb(47,36,52)" /><circle cx="122" cy="29" r="30" fill="rgb(134,143,90)" /><circle cx="176" cy="56" r="30" fill="rgb(147,157,107)" /><circle cx="151" cy="76" r="30" fill="rgb(101,118,84)" /><circle cx="126" cy="116" r="30" fill="rgb(48,23,27)" /><circle cx="177" cy="103" r="30" fill="rgb(103,105,92)" /><circle cx="122" cy="90" r="30" fill="rgb(33,23,34)" /><circle cx="137" cy="234" r="30" fill="rgb(43,15,27)" /><circle cx="3" cy="133" r="30" fill="rgb(106,70,54)" /><circle cx="87" cy="79" r="30" fill="rgb(173,128,73)" /><circle cx="114" cy="8" r="30" fill="rgb(101,121,70)" /><circle cx="84" cy="7" r="30" fill="rgb(107,124,80)" /><circle cx="85" cy="142" r="30" fill="rgb(241,212,120)" /><circle cx="122" cy="220" r="30" fill="rgb(104,52,15)" /><circle cx="90" cy="78" r="30" fill="rgb(211,168,89)" /><circle cx="43" cy="146" r="30" fill="rgb(42,24,40)" /><circle cx="86" cy="176" r="30" fill="rgb(61,43,31)" /><circle cx="16" cy="175" r="30" fill="rgb(88,69,52)" /><circle cx="114" cy="204" r="30" fill="rgb(18,16,37)" /><circle cx="3" cy="179" r="30" fill="rgb(80,61,63)" /><circle cx="1" cy="122" r="30" fill="rgb(119,84,64)" /><circle cx="116" cy="95" r="30" fill="rgb(37,21,31)" /><circle cx="97" cy="235" r="30" fill="rgb(146,90,65)" /><circle cx="86" cy="250" r="30" fill="rgb(45,26,32)" /><circle cx="66" cy="42" r="30" fill="rgb(90,67,33)" /><circle cx="183" cy="45" r="30" fill="rgb(140,148,97)" /><circle cx="71" cy="125" r="30" fill="rgb(214,175,84)" /><circle cx="161" cy="23" r="30" fill="rgb(133,140,98)" /><circle cx="132" cy="92" r="30" fill="rgb(79,81,60)" /><circle cx="174" cy="156" r="30" fill="rgb(96,55,49)" /><circle cx="80" cy="63" r="30" fill="rgb(218,176,92)" /><circle cx="171" cy="104" r="30" fill="rgb(79,82,63)" /><circle cx="63" cy="105" r="30" fill="rgb(53,27,30)" /><circle cx="61" cy="208" r="30" fill="rgb(206,164,80)" /><circle cx="101" cy="218" r="30" fill="rgb(26,5,0)" /><circle cx="106" cy="152" r="30" fill="rgb(57,43,42)" /><circle cx="4" cy="108" r="30" fill="rgb(69,68,63)" /><circle cx="154" cy="163" r="30" fill="rgb(29,22,38)" /><circle cx="95" cy="47" r="30" fill="rgb(168,122,47)" /><circle cx="18" cy="56" r="30" fill="rgb(119,122,77)" /><circle cx="20" cy="47" r="30" fill="rgb(160,163,110)" /><circle cx="20" cy="25" r="30" fill="rgb(131,140,85)" /><circle cx="122" cy="79" r="30" fill="rgb(13,5,16)" /><circle cx="139" cy="142" r="30" fill="rgb(27,26,42)" /><circle cx="149" cy="180" r="30" fill="rgb(32,19,39)" /><circle cx="157" cy="138" r="30" fill="rgb(56,30,29)" /><circle cx="86" cy="154" r="30" fill="rgb(113,79,52)" /><circle cx="79" cy="259" r="30" fill="rgb(28,13,34)" /><circle cx="157" cy="80" r="30" fill="rgb(79,95,66)" /><circle cx="34" cy="165" r="30" fill="rgb(59,44,51)" /><circle cx="63" cy="144" r="30" fill="rgb(106,73,32)" /><circle cx="60" cy="260" r="30" fill="rgb(26,11,30)" /><circle cx="87" cy="69" r="30" fill="rgb(205,164,84)" /><circle cx="63" cy="20" r="30" fill="rgb(127,136,83)" /><circle cx="0" cy="74" r="30" fill="rgb(70,65,46)" /><circle cx="74" cy="7" r="30" fill="rgb(112,122,70)" /><circle cx="55" cy="153" r="30" fill="rgb(87,63,53)" /><circle cx="87" cy="68" r="30" fill="rgb(199,158,79)" /><circle cx="134" cy="160" r="30" fill="rgb(89,63,28)" /><circle cx="30" cy="37" r="30" fill="rgb(148,151,98)" /><circle cx="94" cy="197" r="30" fill="rgb(30,21,40)" /><circle cx="148" cy="135" r="30" fill="rgb(34,22,46)" /><circle cx="131" cy="145" r="30" fill="rgb(49,33,36)" /><circle cx="107" cy="102" r="30" fill="rgb(91,63,41)" /><circle cx="46" cy="234" r="30" fill="rgb(125,71,27)" /><circle cx="118" cy="139" r="30" fill="rgb(138,105,60)" /><circle cx="166" cy="128" r="30" fill="rgb(150,133,79)" /><circle cx="15" cy="194" r="30" fill="rgb(63,46,54)" /><circle cx="46" cy="166" r="30" fill="rgb(45,28,46)" /><circle cx="9" cy="24" r="30" fill="rgb(125,136,80)" /><circle cx="157" cy="60" r="30" fill="rgb(171,170,103)" /><circle cx="133" cy="175" r="30" fill="rgb(23,9,26)" /><circle cx="90" cy="164" r="30" fill="rgb(92,75,57)" /><circle cx="70" cy="9" r="30" fill="rgb(111,121,69)" /><circle cx="129" cy="0" r="30" fill="rgb(62,88,51)" /><circle cx="132" cy="83" r="30" fill="rgb(59,66,50)" /><circle cx="182" cy="239" r="30" fill="rgb(86,53,62)" /><circle cx="61" cy="185" r="30" fill="rgb(40,28,40)" /><circle cx="114" cy="32" r="30" fill="rgb(141,134,90)" /><circle cx="141" cy="206" r="30" fill="rgb(37,16,33)" /><circle cx="138" cy="14" r="30" fill="rgb(120,127,83)" /><circle cx="136" cy="250" r="30" fill="rgb(11,8,29)" /><circle cx="77" cy="91" r="30" fill="rgb(197,154,85)" /><circle cx="25" cy="52" r="30" fill="rgb(166,167,110)" /><circle cx="94" cy="55" r="30" fill="rgb(197,153,78)" /><circle cx="84" cy="147" r="30" fill="rgb(177,141,63)" /><circle cx="62" cy="117" r="30" fill="rgb(54,30,43)" /><circle cx="60" cy="25" r="30" fill="rgb(133,138,82)" /><circle cx="49" cy="202" r="30" fill="rgb(81,43,7)" /><circle cx="79" cy="259" r="30" fill="rgb(28,13,34)" /><circle cx="167" cy="28" r="30" fill="rgb(138,146,86)" /><circle cx="70" cy="234" r="30" fill="rgb(112,64,41)" /><circle cx="14" cy="0" r="30" fill="rgb(72,102,64)" /><circle cx="122" cy="109" r="30" fill="rgb(51,33,29)" /><circle cx="103" cy="239" r="30" fill="rgb(53,18,16)" /><circle cx="95" cy="58" r="30" fill="rgb(168,123,66)" /><circle cx="119" cy="12" r="30" fill="rgb(118,130,80)" /><circle cx="18" cy="201" r="30" fill="rgb(35,14,33)" /><circle cx="111" cy="203" r="30" fill="rgb(17,17,41)" /><circle cx="67" cy="191" r="30" fill="rgb(34,22,36)" /><circle cx="73" cy="226" r="30" fill="rgb(166,116,53)" /><circle cx="120" cy="168" r="30" fill="rgb(40,26,25)" /><circle cx="28" cy="170" r="30" fill="rgb(77,48,34)" /></svg>